<svg width="68" height="68" viewBox="0 0 68 68" fill="none" xmlns="http://www.w3.org/2000/svg">
<path d="M41.4375 18.0626C41.1655 18.0626 40.8935 17.9585 40.6853 17.7524L35.3728 12.4399C34.9584 12.0255 34.9584 11.3519 35.3728 10.9375C35.7872 10.5231 36.4608 10.5231 36.8752 10.9375L41.4375 15.4977L53.4353 3.49999C53.8497 3.08562 54.5233 3.08562 54.9377 3.49999C55.352 3.91437 55.352 4.58799 54.9377 5.00237L42.1877 17.7524C41.9815 17.9585 41.7095 18.0626 41.4375 18.0626Z" fill="#FFBB0B"/>
<path d="M22.3125 25.5H5.3125C3.55512 25.5 2.125 24.0699 2.125 22.3125V5.3125C2.125 3.55512 3.55512 2.125 5.3125 2.125H22.3125C24.0699 2.125 25.5 3.55512 25.5 5.3125V22.3125C25.5 24.0699 24.0699 25.5 22.3125 25.5ZM5.3125 4.25C4.72813 4.25 4.25 4.726 4.25 5.3125V22.3125C4.25 22.899 4.72813 23.375 5.3125 23.375H22.3125C22.8969 23.375 23.375 22.899 23.375 22.3125V5.3125C23.375 4.726 22.8969 4.25 22.3125 4.25H5.3125Z" fill="#3FA9F5"/>
<path d="M22.3125 53.125H5.3125C3.55512 53.125 2.125 51.6949 2.125 49.9375V32.9375C2.125 31.1801 3.55512 29.75 5.3125 29.75H22.3125C24.0699 29.75 25.5 31.1801 25.5 32.9375V49.9375C25.5 51.6949 24.0699 53.125 22.3125 53.125ZM5.3125 31.875C4.72813 31.875 4.25 32.351 4.25 32.9375V49.9375C4.25 50.524 4.72813 51 5.3125 51H22.3125C22.8969 51 23.375 50.524 23.375 49.9375V32.9375C23.375 32.351 22.8969 31.875 22.3125 31.875H5.3125Z" fill="#3FA9F5"/>
<path d="M35.0625 25.5H32.9375C31.1801 25.5 29.75 24.0699 29.75 22.3125V5.3125C29.75 3.55512 31.1801 2.125 32.9375 2.125H49.9375C50.524 2.125 51 2.601 51 3.1875C51 3.774 50.524 4.25 49.9375 4.25H32.9375C32.3531 4.25 31.875 4.726 31.875 5.3125V22.3125C31.875 22.899 32.3531 23.375 32.9375 23.375H35.0625C35.649 23.375 36.125 23.851 36.125 24.4375C36.125 25.024 35.649 25.5 35.0625 25.5Z" fill="#3FA9F5"/>
<path d="M49.9375 25.5H45.6875C45.101 25.5 44.625 25.024 44.625 24.4375C44.625 23.851 45.101 23.375 45.6875 23.375H49.9375C50.5219 23.375 51 22.899 51 22.3125V11.6875C51 11.101 51.476 10.625 52.0625 10.625C52.649 10.625 53.125 11.101 53.125 11.6875V22.3125C53.125 24.0699 51.6949 25.5 49.9375 25.5Z" fill="#3FA9F5"/>
<path d="M40.375 65.875C39.9224 65.875 39.5059 65.586 39.3614 65.1312C39.2997 64.9931 38.93 64.6808 38.675 64.5299C35.5087 62.6748 31.9302 54.4723 31.5329 53.5436L28.1732 40.5769C28.0542 40.1179 28.254 39.6355 28.662 39.3954C30.7339 38.1777 32.3297 38.2861 33.3115 38.5921C34.6864 39.0235 35.8169 40.1158 36.5734 41.752L38.25 45.254V25.5C38.25 23.1561 40.1561 21.25 42.5 21.25C44.8439 21.25 46.75 23.1561 46.75 25.5V36.6966C47.3747 36.3332 48.1015 36.125 48.875 36.125C50.4199 36.125 51.7714 36.9516 52.5172 38.1862C53.2567 37.5636 54.2109 37.1875 55.25 37.1875C57.1009 37.1875 58.6797 38.3775 59.262 40.0307C59.9377 39.5781 60.7516 39.3125 61.625 39.3125C63.9689 39.3125 65.875 41.2186 65.875 43.5625V60.5625C65.875 63.4907 63.4929 65.875 60.5625 65.875H49.9375C49.351 65.875 48.875 65.399 48.875 64.8125C48.875 64.226 49.351 63.75 49.9375 63.75H60.5625C62.3199 63.75 63.75 62.3199 63.75 60.5625V43.5625C63.75 42.3916 62.798 41.4375 61.625 41.4375C60.452 41.4375 59.5 42.3916 59.5 43.5625C59.5 44.149 59.024 44.625 58.4375 44.625C57.851 44.625 57.375 44.149 57.375 43.5625V41.4375C57.375 40.2666 56.423 39.3125 55.25 39.3125C54.077 39.3125 53.125 40.2666 53.125 41.4375C53.125 42.024 52.649 42.5 52.0625 42.5C51.476 42.5 51 42.024 51 41.4375V40.375C51 39.2041 50.048 38.25 48.875 38.25C47.702 38.25 46.75 39.2041 46.75 40.375C46.75 40.9615 46.274 41.4375 45.6875 41.4375C45.101 41.4375 44.625 40.9615 44.625 40.375V25.5C44.625 24.3291 43.673 23.375 42.5 23.375C41.327 23.375 40.375 24.3291 40.375 25.5V49.9375C40.375 50.4326 40.0307 50.864 39.5462 50.9745C39.0575 51.0893 38.5687 50.8427 38.352 50.3965L34.6502 42.6551C34.2975 41.8923 33.6727 40.9296 32.6761 40.6194C32.0259 40.4175 31.2779 40.4983 30.4406 40.8659L33.5367 52.8615C34.4887 55.0566 37.5721 61.4253 39.7502 62.7003C40.0605 62.883 41.0869 63.5481 41.3865 64.4959C41.5629 65.0547 41.2526 65.6519 40.6937 65.8283C40.5896 65.8601 40.4812 65.875 40.375 65.875Z" fill="#FFBB0B"/>
</svg>
