<svg width="68" height="68" viewBox="0 0 68 68" fill="none" xmlns="http://www.w3.org/2000/svg">
<g clip-path="url(#clip0_9094_14541)">
<path d="M65.8729 33.5469C63.5993 31.673 60.0056 31.5123 57.647 34.0436L51.7917 40.3292C51.0347 37.8962 48.7624 36.1246 46.0838 36.1246H35.6348C34.8419 36.1246 34.5764 35.8218 33.1991 34.7608C27.948 30.183 20.0608 30.1976 14.8256 34.8046L10.9849 38.1858C9.25849 37.272 7.24253 37.2494 5.50667 38.1167L1.10155 40.3186C0.117407 40.8113 -0.280897 42.0078 0.210376 42.992L12.1628 66.8968C12.6556 67.8809 13.8521 68.2792 14.8362 67.7879L19.2413 65.5847C21.4127 64.4998 22.6212 62.2845 22.5428 60.0296H46.0837C50.449 60.0296 54.6203 57.9445 57.2393 54.4518L66.8026 41.7C68.6578 39.2283 68.3643 35.604 65.8729 33.5469ZM17.459 62.0215L14.8361 63.3335L4.66464 42.992L7.28888 41.6799C8.27302 41.1885 9.4682 41.5856 9.96094 42.5711L18.3502 59.3496C18.8416 60.3336 18.4431 61.5288 17.459 62.0215ZM63.6152 39.3094L54.052 52.0612C52.1808 54.5566 49.202 56.0453 46.0838 56.0453H21.1524L13.6874 41.1141L17.4577 37.7954C21.2094 34.4952 26.8669 34.4952 30.6186 37.7954C32.8285 39.741 34.2029 40.1089 35.6347 40.1089H46.0837C47.182 40.1089 48.0757 41.0027 48.0757 42.1009C48.0757 43.1992 47.1819 44.093 46.0837 44.093H35.9096C34.8099 44.093 33.9175 44.9855 33.9175 46.0851C33.9175 47.1846 34.81 48.0771 35.9096 48.0771H47.4184C49.0718 48.0771 50.6656 47.3838 51.7917 46.174L60.5621 36.7595C61.3643 35.8989 62.594 35.9706 63.3484 36.6307C64.1372 37.3212 64.2223 38.5019 63.6152 39.3094Z" fill="#3FA9F5" stroke="white" stroke-width="2"/>
<path d="M41.8869 13.5956C43.2507 12.1653 44.0914 10.2317 44.0914 8.10274C44.0914 3.71754 40.5483 0.00170898 36.1232 0.00170898C31.7314 0.00170898 28.0222 3.7109 28.0222 8.10274C28.0222 10.1665 28.831 12.1147 30.2998 13.6115C26.657 15.6541 24.0381 19.5744 24.0381 24.1721V26.1642C24.0381 27.2637 24.9306 28.1562 26.0301 28.1562H46.0836C47.1832 28.1562 48.0757 27.2637 48.0757 26.1642V24.1721C48.0756 19.6647 45.5963 15.6833 41.8869 13.5956ZM36.1232 3.98595C38.2826 3.98595 40.1073 5.87176 40.1073 8.10287C40.1073 10.2995 38.3198 12.087 36.1232 12.087C33.8921 12.087 32.0063 10.2623 32.0063 8.10287C32.0063 5.91027 33.9306 3.98595 36.1232 3.98595ZM28.0222 24.1721C28.0222 19.7803 31.7314 16.0711 36.1232 16.0711C40.5164 16.0711 44.0914 19.7046 44.0914 24.1721H28.0222Z" fill="#FFBB0B" stroke="white" stroke-width="2"/>
</g>
<defs>
<clipPath id="clip0_9094_14541">
<rect width="68" height="68" fill="white"/>
</clipPath>
</defs>
</svg>
