<svg width="68" height="68" viewBox="0 0 68 68" fill="none" xmlns="http://www.w3.org/2000/svg">
<path d="M32.5614 1.47621C31.6097 0.524345 30.3442 0 28.9981 0C27.971 0 26.9906 0.305337 26.1609 0.872846C25.3311 0.305204 24.3508 0 23.3238 0C21.9777 0 20.7121 0.524345 19.7604 1.47608C18.8084 2.42782 18.2842 3.69326 18.2842 5.03958C18.2842 6.38564 18.8084 7.65134 19.7604 8.60321L25.4347 14.2771C25.6352 14.4777 25.8982 14.5779 26.161 14.5779C26.4239 14.5779 26.6868 14.4777 26.8875 14.277L32.5614 8.60295C34.5257 6.63785 34.5256 3.44078 32.5614 1.47621ZM31.1083 7.15037L26.1612 12.0978L21.2134 7.15037C20.6496 6.58658 20.3391 5.83699 20.3391 5.03971C20.3391 4.24244 20.6493 3.49284 21.2132 2.92905C21.7769 2.36526 22.5265 2.05475 23.3238 2.05475C24.121 2.05475 24.8706 2.36526 25.4347 2.92919C25.6273 3.12176 25.8886 3.23001 26.1612 3.23001C26.4337 3.23001 26.6949 3.12176 26.8875 2.92905C27.4512 2.36526 28.2008 2.05475 28.9981 2.05475C29.7953 2.05475 30.5447 2.36526 31.1083 2.92905C32.2719 4.09276 32.2718 5.98654 31.1083 7.15037Z" fill="#FFBB0B"/>
<path d="M42.0523 12.6293C41.4794 12.056 40.7176 11.7405 39.9071 11.7405C39.4044 11.7405 38.9204 11.862 38.4888 12.091C38.0569 11.862 37.5728 11.7405 37.0701 11.7405C36.2596 11.7405 35.4977 12.0562 34.9251 12.629C34.3522 13.2018 34.0366 13.9636 34.0366 14.7739C34.0366 15.5842 34.3521 16.346 34.9251 16.919L37.7627 19.7561C37.9553 19.9487 38.2166 20.0569 38.4892 20.0569C38.7616 20.0569 39.0229 19.9487 39.2155 19.756L42.0523 16.9188C43.2347 15.736 43.2347 13.8116 42.0523 12.6293ZM40.5989 15.4664L38.4889 17.5768L36.378 15.4663C36.1931 15.2814 36.0914 15.0356 36.0914 14.7741C36.0914 14.5125 36.1931 14.2667 36.3781 14.0817C36.5629 13.897 36.8086 13.7951 37.0699 13.7951C37.3316 13.7951 37.5775 13.8971 37.7625 14.0821C37.9553 14.2747 38.2165 14.3829 38.4889 14.3829H38.4893C38.7618 14.3828 39.0231 14.2744 39.2157 14.0817C39.4003 13.897 39.6457 13.7952 39.9069 13.7952C40.1683 13.7952 40.414 13.8971 40.5989 14.0821C40.9806 14.4637 40.9803 15.0846 40.5989 15.4664Z" fill="#FFBB0B"/>
<path d="M58.6992 16.5471C58.4445 16.5471 52.4255 16.5835 49.256 19.7532L42.8867 26.1225L12.4549 18.5155C12.4476 18.5137 12.44 18.5129 12.4327 18.5112C12.4132 18.5068 12.3937 18.5028 12.374 18.4996C12.3591 18.4971 12.3442 18.495 12.3295 18.4932C12.3118 18.4911 12.2942 18.4895 12.2764 18.4883C12.2599 18.4871 12.2434 18.4863 12.227 18.4859C12.2104 18.4857 12.1938 18.4858 12.1772 18.4863C12.1606 18.4869 12.144 18.4875 12.1274 18.4887C12.1102 18.49 12.0931 18.492 12.076 18.4942C12.0608 18.4961 12.0457 18.498 12.0309 18.5007C12.0117 18.504 11.9927 18.5081 11.9736 18.5125C11.9613 18.5154 11.9493 18.5181 11.9372 18.5214C11.9157 18.5271 11.8945 18.534 11.8734 18.5412C11.8641 18.5444 11.8547 18.5474 11.8454 18.551C11.823 18.5595 11.8009 18.5688 11.7789 18.5789C11.771 18.5825 11.7632 18.5859 11.7555 18.5898C11.7338 18.6003 11.7127 18.6118 11.6919 18.6239C11.6836 18.6287 11.6753 18.6335 11.6673 18.6384C11.6484 18.6501 11.63 18.6624 11.6118 18.6753C11.6014 18.6826 11.5913 18.6901 11.5812 18.6976C11.5661 18.7093 11.5512 18.7214 11.5367 18.7339C11.5241 18.7448 11.5119 18.7559 11.4998 18.7674C11.4932 18.7736 11.486 18.7792 11.4795 18.7857L8.57409 21.6908C8.56917 21.6957 8.56506 21.7012 8.56028 21.7061C8.54713 21.7198 8.53451 21.7337 8.52203 21.7482C8.51047 21.7616 8.49931 21.7752 8.48856 21.7891C8.48391 21.7951 8.47873 21.8005 8.47421 21.8066C8.4693 21.8133 8.46518 21.8204 8.4604 21.8274C8.44911 21.8434 8.43822 21.8598 8.42786 21.8765C8.42003 21.8891 8.41245 21.9019 8.40528 21.9147C8.39599 21.9313 8.38709 21.9481 8.37885 21.9651C8.37195 21.9792 8.36531 21.9932 8.35906 22.0076C8.35216 22.0235 8.34565 22.0397 8.33954 22.0559C8.3337 22.0716 8.32799 22.0875 8.32294 22.1035C8.31803 22.1187 8.31351 22.134 8.30939 22.1494C8.30474 22.1666 8.30049 22.1837 8.29677 22.201C8.29359 22.2158 8.2908 22.2307 8.28827 22.2456C8.28535 22.2632 8.2827 22.2809 8.2807 22.2987C8.27898 22.3138 8.27765 22.3291 8.27659 22.3443C8.27539 22.3617 8.27446 22.3789 8.27406 22.3962C8.2738 22.4123 8.27393 22.4282 8.27433 22.4443C8.27486 22.4607 8.27553 22.4771 8.27672 22.4934C8.27792 22.5104 8.27977 22.5274 8.28177 22.5443C8.28376 22.5596 8.28575 22.5747 8.28841 22.5897C8.29133 22.6075 8.29492 22.6252 8.29903 22.6428C8.30209 22.657 8.30554 22.6711 8.30939 22.6853C8.31417 22.7031 8.31962 22.7208 8.32546 22.7383C8.32998 22.7523 8.33463 22.7659 8.33994 22.7798C8.34631 22.7966 8.35322 22.8135 8.36053 22.8301C8.36663 22.8443 8.37328 22.8584 8.38005 22.8723C8.38762 22.8876 8.39572 22.9027 8.40409 22.9177C8.41232 22.9328 8.42109 22.9475 8.43012 22.962C8.43849 22.9754 8.44725 22.9884 8.45615 23.0016C8.46691 23.017 8.47806 23.0321 8.48962 23.0471C8.49865 23.0588 8.50808 23.0704 8.51778 23.0818C8.53053 23.0966 8.54354 23.1113 8.55722 23.1255C8.56293 23.1314 8.56798 23.138 8.57382 23.1438C8.57913 23.1491 8.58511 23.1536 8.59042 23.1588C8.60331 23.171 8.61645 23.183 8.63 23.1947C8.64421 23.2069 8.65869 23.2188 8.6733 23.2301C8.67888 23.2344 8.68392 23.2393 8.68964 23.2435L30.0083 39.0004L19.6772 49.3316L14.4685 47.5948C14.4582 47.5913 14.448 47.5893 14.4378 47.5863C14.4186 47.5805 14.3994 47.5747 14.3799 47.5702C14.3631 47.5662 14.3464 47.5633 14.3295 47.5601C14.314 47.5572 14.2987 47.5542 14.2832 47.5521C14.2637 47.5495 14.2443 47.5477 14.2249 47.5462C14.2115 47.5451 14.1983 47.5439 14.1849 47.5434C14.1644 47.5426 14.1441 47.5427 14.1237 47.5431C14.1108 47.5434 14.0982 47.5435 14.0853 47.5442C14.0651 47.5454 14.045 47.5473 14.025 47.5497C14.0117 47.5513 13.9986 47.5528 13.9854 47.5548C13.9659 47.5578 13.9466 47.5617 13.9274 47.5659C13.9138 47.5689 13.9005 47.5716 13.8873 47.575C13.8677 47.58 13.8487 47.586 13.8298 47.5921C13.817 47.5962 13.8044 47.6001 13.7918 47.6047C13.7715 47.6122 13.7514 47.6207 13.7316 47.6294C13.7208 47.6341 13.7104 47.6385 13.6997 47.6435C13.6772 47.6544 13.6554 47.6663 13.6335 47.6788C13.6275 47.6823 13.6211 47.6849 13.6151 47.6887L13.6017 47.6966C13.6 47.6977 13.5983 47.6986 13.5967 47.6997L8.78128 50.5889C8.77875 50.5904 8.77636 50.5918 8.77397 50.5933L8.77224 50.5943C8.76959 50.5959 8.76746 50.5978 8.76481 50.5994C8.73864 50.6155 8.71288 50.6325 8.68804 50.6509C8.68007 50.6568 8.67277 50.6634 8.66506 50.6695C8.64647 50.6841 8.62801 50.6987 8.61048 50.7147C8.59853 50.7254 8.58777 50.737 8.57635 50.7481C8.56413 50.7603 8.55164 50.7722 8.53996 50.7851C8.52468 50.8019 8.51074 50.8196 8.49679 50.8372C8.49015 50.8457 8.48285 50.8537 8.47647 50.8625C8.45801 50.8872 8.44114 50.9128 8.42507 50.939C8.42348 50.9416 8.42162 50.9439 8.42003 50.9466C8.41989 50.9468 8.41976 50.9471 8.41963 50.9473C8.38443 51.0061 8.35535 51.0677 8.33263 51.1317C8.32281 51.1592 8.31484 51.1868 8.30767 51.2148C8.3066 51.2188 8.30514 51.2225 8.30421 51.2265C8.29784 51.2522 8.29306 51.2779 8.28867 51.3037C8.28748 51.3106 8.28575 51.3174 8.28482 51.3244C8.2815 51.3462 8.27991 51.3681 8.27805 51.39C8.27712 51.4016 8.27552 51.4131 8.27499 51.4247C8.2742 51.4413 8.27459 51.4578 8.27473 51.4744C8.27459 51.4916 8.27406 51.5088 8.27499 51.526C8.27552 51.537 8.27699 51.5479 8.27792 51.559C8.27977 51.5814 8.2815 51.6037 8.28469 51.6262C8.28575 51.6323 8.28721 51.6384 8.28827 51.6445C8.29266 51.671 8.29757 51.6977 8.30421 51.724C8.30448 51.7254 8.30501 51.7266 8.30528 51.7278C8.31749 51.7754 8.33396 51.8225 8.35322 51.8689C8.35893 51.8827 8.36398 51.8968 8.37022 51.9104C8.37195 51.9138 8.37407 51.9173 8.37567 51.9207C8.38908 51.9484 8.40329 51.9756 8.41896 52.002C8.41936 52.0025 8.41949 52.0032 8.41989 52.0037C8.42109 52.0057 8.42255 52.0073 8.42374 52.0092C8.44367 52.0421 8.46598 52.0737 8.48988 52.1045C8.49692 52.1136 8.50423 52.1225 8.51153 52.1312C8.53106 52.1548 8.55164 52.1773 8.57356 52.1992C8.58153 52.2073 8.58936 52.2158 8.5976 52.2237C8.62575 52.2501 8.65524 52.2753 8.68685 52.2987C8.69694 52.3062 8.7077 52.3125 8.71806 52.3196C8.73599 52.3319 8.75339 52.3447 8.77238 52.356L17.3299 57.4908L16.3229 58.4978C15.9217 58.899 15.9217 59.5495 16.3229 59.9506C16.5236 60.1511 16.7866 60.2515 17.0494 60.2515C17.3122 60.2515 17.5752 60.1513 17.7759 59.9506L18.7829 58.9436L23.9122 67.4921C23.9137 67.4946 23.9152 67.497 23.9166 67.4994L23.9177 67.5011C23.9182 67.5021 23.919 67.5029 23.9195 67.5039C23.9403 67.5382 23.9634 67.571 23.9883 67.6029C23.9948 67.6114 24.0016 67.6195 24.0084 67.6277C24.0284 67.652 24.0498 67.6754 24.0724 67.698C24.08 67.7055 24.0871 67.7134 24.0949 67.7207C24.1233 67.7472 24.153 67.7729 24.185 67.7965C24.1943 67.8034 24.2042 67.8091 24.2137 67.8158C24.2323 67.8286 24.2505 67.8418 24.27 67.8536C24.2741 67.8561 24.2787 67.8577 24.2829 67.8601C24.308 67.8747 24.3339 67.8871 24.3599 67.8994C24.376 67.907 24.3917 67.9155 24.4079 67.9221C24.4307 67.9314 24.4542 67.9386 24.4776 67.9463C24.4974 67.9528 24.5171 67.9604 24.5371 67.9657C24.5573 67.971 24.578 67.9741 24.5983 67.9782C24.6215 67.9827 24.6444 67.9886 24.6677 67.9915C24.6954 67.9951 24.7237 67.9957 24.752 67.9971C24.7673 67.9977 24.7826 68.0001 24.7977 68.0001C24.798 68.0001 24.7984 68 24.7986 68C24.7989 68 24.7993 68.0001 24.7996 68.0001C24.8148 68.0001 24.8301 67.9977 24.8452 67.9971C24.8734 67.9957 24.9017 67.9951 24.9294 67.9915C24.9528 67.9886 24.9759 67.9828 24.9992 67.9781C25.0195 67.9741 25.0399 67.971 25.06 67.9658C25.0803 67.9605 25.1001 67.9528 25.1202 67.9461C25.1433 67.9385 25.1664 67.9314 25.1891 67.9221C25.2057 67.9154 25.2218 67.9067 25.2382 67.8989C25.2637 67.8868 25.2892 67.8746 25.3137 67.8603C25.3182 67.8577 25.3227 67.856 25.3272 67.8535C25.3475 67.8413 25.3665 67.8276 25.3857 67.8142C25.3943 67.8082 25.4033 67.803 25.4117 67.7966C25.444 67.7727 25.4738 67.7471 25.5025 67.7201C25.51 67.7131 25.517 67.7055 25.5242 67.6982C25.5469 67.6754 25.5685 67.6519 25.589 67.6272C25.5956 67.6191 25.6024 67.611 25.6088 67.6026C25.6335 67.5709 25.6567 67.5382 25.6774 67.5039C25.6781 67.5029 25.6789 67.5019 25.6796 67.5007L25.6808 67.4986C25.6821 67.4963 25.6836 67.4941 25.6849 67.4918L28.5851 62.6576C28.5915 62.647 28.5965 62.6359 28.6024 62.6252C28.6111 62.6094 28.62 62.5936 28.6279 62.5772C28.6356 62.5613 28.6425 62.5451 28.6493 62.5288C28.6552 62.5144 28.6616 62.5002 28.6669 62.4857C28.6734 62.4681 28.6791 62.4503 28.6846 62.4323C28.689 62.4184 28.6934 62.4046 28.6972 62.3904C28.7019 62.3724 28.7057 62.3544 28.7096 62.3363C28.7126 62.3216 28.7157 62.3067 28.7181 62.2917C28.7207 62.2746 28.7227 62.2574 28.7246 62.2402C28.7263 62.2238 28.728 62.2073 28.7291 62.1909C28.73 62.1749 28.7303 62.159 28.7304 62.1431C28.7307 62.1261 28.7308 62.1083 28.7302 62.0905C28.7295 62.0753 28.7282 62.0602 28.727 62.0452C28.7255 62.0271 28.7239 62.0089 28.7215 61.9907C28.7193 61.9749 28.7162 61.9593 28.7134 61.9436C28.7102 61.9266 28.7073 61.9097 28.7032 61.8927C28.6989 61.8751 28.6938 61.8577 28.6884 61.8401C28.6851 61.8283 28.6826 61.8165 28.6786 61.8048L26.9417 56.5959L56.5156 27.0219C56.5171 27.0203 56.5188 27.019 56.5204 27.0175C59.69 23.848 59.7264 17.8292 59.7264 17.5744C59.7265 17.0071 59.2666 16.5471 58.6992 16.5471ZM10.8703 22.3003L12.5208 20.65L41.1922 27.8167L31.4776 37.5313L10.8703 22.3003ZM55.0708 25.561C55.0697 25.5622 55.0684 25.5631 55.0672 25.5643L25.0397 55.5919C25.0364 55.5954 25.0336 55.5991 25.0301 55.6026C25.016 55.6171 25.0029 55.6321 24.9896 55.6473C24.9798 55.6586 24.97 55.6698 24.9607 55.6813C24.9504 55.6942 24.9411 55.7076 24.9316 55.721C24.9208 55.7359 24.9102 55.7507 24.9004 55.7659C24.8936 55.7764 24.8876 55.7874 24.8812 55.7982C24.8703 55.8167 24.8597 55.835 24.85 55.8539C24.8454 55.8632 24.8414 55.8728 24.8367 55.8824C24.8272 55.9029 24.8178 55.9233 24.8095 55.9442C24.8054 55.9548 24.8021 55.9657 24.7982 55.9764C24.7913 55.9964 24.784 56.0163 24.7783 56.0365C24.7743 56.0508 24.7713 56.0654 24.7677 56.0799C24.7637 56.0968 24.7592 56.1136 24.756 56.1308C24.7527 56.1491 24.7505 56.1677 24.7482 56.1864C24.7463 56.2001 24.7442 56.2135 24.7428 56.2273C24.7411 56.2478 24.7406 56.2682 24.7399 56.2888C24.7397 56.3013 24.7389 56.3137 24.7389 56.326C24.739 56.3457 24.7405 56.3652 24.7416 56.3848C24.7426 56.3989 24.7431 56.413 24.7447 56.4271C24.7464 56.4438 24.7492 56.4607 24.7519 56.4774C24.7545 56.4948 24.7572 56.5121 24.7609 56.5293C24.7637 56.543 24.7673 56.5566 24.7707 56.5701C24.7758 56.5904 24.7812 56.6106 24.7876 56.6307C24.7889 56.6349 24.7897 56.6393 24.7912 56.6437L26.5794 62.0068L24.7978 64.9764L20.2797 57.4465L24.5556 53.1706C24.9572 52.7691 24.9572 52.1186 24.556 51.7174C24.1546 51.3162 23.5042 51.3162 23.103 51.7174L18.8272 55.9932L11.2974 51.475L14.267 49.6933L19.6301 51.4817C19.6334 51.4829 19.6369 51.483 19.6403 51.4842C19.686 51.4989 19.7325 51.5103 19.7794 51.5184C19.7909 51.5204 19.8022 51.5218 19.8136 51.5234C19.856 51.5292 19.8985 51.5331 19.9411 51.5336C19.9458 51.5337 19.9504 51.5348 19.9552 51.5348C19.9604 51.5348 19.9656 51.5336 19.9707 51.5336C20.0114 51.5329 20.0519 51.5295 20.0924 51.524C20.1052 51.5223 20.1178 51.5207 20.1304 51.5186C20.1741 51.511 20.2174 51.5009 20.26 51.4876C20.2687 51.4848 20.277 51.4817 20.2856 51.4786C20.3244 51.4655 20.3624 51.4499 20.3997 51.432C20.4066 51.4287 20.4139 51.4257 20.4209 51.4222C20.4611 51.4017 20.5 51.3782 20.5377 51.352C20.5476 51.3453 20.5571 51.3378 20.5668 51.3307C20.5963 51.3087 20.6246 51.2852 20.6521 51.2597C20.6604 51.2519 20.6695 51.2447 20.6776 51.2366C20.6788 51.2354 20.6801 51.2345 20.6813 51.2333L50.7088 21.2058C52.5661 19.3484 55.8962 18.8157 57.6119 18.663C57.4613 20.376 56.9316 23.6967 55.0708 25.561Z" fill="#3FA9F5"/>
<path d="M57.7838 63.9949C57.7828 63.9782 57.7812 63.9614 57.7793 63.9447C57.7774 63.9292 57.7752 63.9137 57.7725 63.8982C57.7693 63.8787 57.7655 63.8594 57.7611 63.8402C57.7594 63.8327 57.7586 63.8253 57.7567 63.8177L51.1709 37.4713C51.0333 36.9207 50.4753 36.5862 49.9252 36.7238C49.3746 36.8614 49.04 37.4191 49.1775 37.9696L55.6222 63.7517L53.9718 65.402L40.6851 47.4253C40.3479 46.969 39.7045 46.8727 39.2483 47.2098C38.792 47.547 38.6956 48.1903 39.0328 48.6465L53.0289 67.5827C53.0323 67.5875 53.0366 67.5916 53.0403 67.5964C53.0562 67.6171 53.0732 67.6372 53.091 67.6569C53.1004 67.6674 53.1095 67.6781 53.1192 67.6882C53.1225 67.6916 53.1253 67.6952 53.1286 67.6985C53.1433 67.7133 53.159 67.7263 53.1745 67.74C53.1844 67.7487 53.1938 67.7583 53.204 67.7666C53.2327 67.7902 53.2623 67.8119 53.2928 67.8319C53.3011 67.8373 53.31 67.842 53.3185 67.8471C53.342 67.8616 53.3659 67.8756 53.3905 67.888C53.4017 67.8936 53.4129 67.8985 53.4242 67.9037C53.4471 67.9143 53.4702 67.9243 53.4936 67.9331C53.5055 67.9376 53.5175 67.9416 53.5296 67.9457C53.5532 67.9535 53.5771 67.9604 53.601 67.9665C53.6131 67.9696 53.6251 67.9728 53.6373 67.9754C53.6626 67.9809 53.6883 67.9851 53.7139 67.9887C53.7248 67.9903 53.7355 67.9923 53.7464 67.9934C53.7819 67.9972 53.8175 67.9993 53.8531 67.9995C53.8542 67.9995 53.8551 67.9996 53.8561 67.9996C53.8573 67.9996 53.8585 67.9993 53.8596 67.9993C53.9053 67.9992 53.9508 67.995 53.9961 67.9887C54.007 67.9873 54.0176 67.9859 54.0285 67.9841C54.0736 67.9765 54.1183 67.966 54.1623 67.9522C54.1708 67.9495 54.1793 67.9462 54.1876 67.9433C54.2307 67.9285 54.273 67.9113 54.3142 67.8908C54.3181 67.8888 54.3218 67.8874 54.3258 67.8855C54.3699 67.8628 54.4124 67.8358 54.4535 67.8062C54.4575 67.8033 54.4619 67.8014 54.466 67.7985C54.4719 67.7941 54.477 67.7892 54.4828 67.7848C54.4972 67.7737 54.5114 67.7619 54.5254 67.7498C54.5391 67.7381 54.5523 67.7261 54.5652 67.7138C54.5707 67.7086 54.5765 67.7041 54.5818 67.6988L57.487 64.7936C57.4927 64.7878 57.4977 64.7814 57.5034 64.7756C57.5163 64.762 57.5287 64.7483 57.5408 64.7341C57.5515 64.721 57.5622 64.708 57.5724 64.6947C57.5818 64.6825 57.5908 64.6701 57.5996 64.6575C57.6109 64.6417 57.6214 64.6259 57.6316 64.6097C57.6385 64.5984 57.6452 64.5871 57.6517 64.5757C57.6619 64.5579 57.6716 64.5401 57.6805 64.5219C57.6861 64.5105 57.6914 64.4989 57.6966 64.4872C57.7047 64.469 57.7128 64.4507 57.7197 64.4321C57.7247 64.419 57.7291 64.4056 57.7336 64.3923C57.7395 64.375 57.745 64.3577 57.7498 64.3402C57.7542 64.3244 57.7578 64.3085 57.7615 64.2925C57.765 64.277 57.7684 64.2616 57.7711 64.2459C57.7743 64.2279 57.7766 64.2099 57.7789 64.1917C57.7806 64.1774 57.7822 64.163 57.7834 64.1487C57.7849 64.13 57.7857 64.1111 57.7861 64.0922C57.7865 64.0775 57.7867 64.0629 57.7865 64.0482C57.7861 64.0305 57.7851 64.0127 57.7838 63.9949Z" fill="#3FA9F5"/>
</svg>
