<svg width="48" height="48" viewBox="0 0 48 48" fill="none" xmlns="http://www.w3.org/2000/svg">
<g id="Frame">
<g id="Group 37870">
<path id="Vector" d="M35.25 30.6979C34.0095 30.6979 33 29.6884 33 28.4479C33 27.2074 34.0095 26.1979 35.25 26.1979C36.4905 26.1979 37.5 27.2074 37.5 28.4479C37.5 29.6884 36.4905 30.6979 35.25 30.6979ZM35.25 27.6979C35.1513 27.6981 35.0536 27.7177 34.9625 27.7557C34.8714 27.7936 34.7887 27.8491 34.719 27.919C34.6494 27.989 34.5942 28.0719 34.5566 28.1632C34.519 28.2544 34.4998 28.3522 34.5 28.4509C34.5002 28.5496 34.5198 28.6472 34.5578 28.7383C34.5957 28.8294 34.6512 28.9122 34.7212 28.9818C34.7911 29.0515 34.874 29.1067 34.9653 29.1442C35.0566 29.1818 35.1543 29.2011 35.253 29.2009C35.4523 29.2005 35.6433 29.1209 35.784 28.9797C35.9246 28.8385 36.0034 28.6472 36.003 28.4479C36.0026 28.2486 35.923 28.0576 35.7818 27.9169C35.6406 27.7763 35.4493 27.6975 35.25 27.6979Z" fill="#3FA9F5"/>
<path id="Vector_2" d="M41.2499 33.6979H35.2499C32.3549 33.6979 29.9999 31.3429 29.9999 28.4479C29.9999 25.5529 32.3549 23.1979 35.2499 23.1979H41.2499C41.4488 23.1979 41.6396 23.2769 41.7803 23.4175C41.9209 23.5582 41.9999 23.7489 41.9999 23.9479V32.9479C41.9999 33.1468 41.9209 33.3375 41.7803 33.4782C41.6396 33.6188 41.4488 33.6979 41.2499 33.6979ZM35.2499 24.6979C33.1814 24.6979 31.4999 26.3809 31.4999 28.4479C31.4999 30.5149 33.1814 32.1979 35.2499 32.1979H40.4999V24.6979H35.2499ZM35.9999 17.1979C35.8608 17.1979 35.7243 17.1591 35.6059 17.086C35.4875 17.0129 35.3918 16.9083 35.3294 16.7839L32.1539 10.4329C31.9311 9.98288 31.6193 9.58274 31.2375 9.25661C30.8557 8.93048 30.4117 8.68512 29.9324 8.53537C29.4543 8.38213 28.95 8.32745 28.4501 8.37464C27.9502 8.42182 27.465 8.56988 27.0239 8.80987L11.6054 17.1079C11.4311 17.1951 11.2296 17.2109 11.0437 17.1521C10.8578 17.0933 10.7022 16.9644 10.6097 16.7927C10.5173 16.6211 10.4953 16.4202 10.5484 16.2326C10.6016 16.045 10.7257 15.8855 10.8944 15.7879L26.3099 7.48687C26.9283 7.15217 27.6079 6.94577 28.3079 6.88005C29.008 6.81432 29.7141 6.89062 30.3839 7.10437C31.7489 7.53637 32.8544 8.47987 33.4949 9.76087L36.6704 16.1119C36.7277 16.2262 36.7548 16.3533 36.7492 16.4811C36.7435 16.6088 36.7053 16.733 36.6381 16.8419C36.5709 16.9507 36.477 17.0405 36.3653 17.1028C36.2536 17.1652 36.1278 17.1979 35.9999 17.1979Z" fill="#FFBB0B" stroke="#FFBB0B" stroke-width="0.428571"/>
<path id="Vector_3" d="M21.8565 17.1979C21.6896 17.1978 21.5276 17.1419 21.396 17.0393C21.2644 16.9367 21.1708 16.7931 21.13 16.6313C21.0892 16.4695 21.1035 16.2987 21.1707 16.1459C21.2379 15.9932 21.3541 15.8672 21.501 15.7879L32.6445 9.78792C32.7313 9.74113 32.8264 9.7119 32.9245 9.70188C33.0225 9.69187 33.1216 9.70126 33.216 9.72954C33.3105 9.75782 33.3984 9.80441 33.4749 9.86668C33.5513 9.92894 33.6147 10.0056 33.6615 10.0924C33.7083 10.1792 33.7375 10.2743 33.7475 10.3724C33.7575 10.4705 33.7481 10.5695 33.7199 10.664C33.6916 10.7584 33.645 10.8464 33.5827 10.9228C33.5205 10.9992 33.4438 11.0626 33.357 11.1094L22.2135 17.1094C22.1034 17.1674 21.9809 17.1978 21.8565 17.1979ZM6.75 21.6979C6.55109 21.6979 6.36032 21.6189 6.21967 21.4782C6.07902 21.3376 6 21.1468 6 20.9479V19.4479C6 14.8984 9.702 11.1979 14.25 11.1979H19.5C19.6989 11.1979 19.8897 11.2769 20.0303 11.4176C20.171 11.5582 20.25 11.749 20.25 11.9479C20.25 12.1468 20.171 12.3376 20.0303 12.4782C19.8897 12.6189 19.6989 12.6979 19.5 12.6979H14.25C12.4604 12.6999 10.7447 13.4117 9.47922 14.6771C8.21378 15.9426 7.50198 17.6583 7.5 19.4479V20.9479C7.5 21.1468 7.42098 21.3376 7.28033 21.4782C7.13968 21.6189 6.94891 21.6979 6.75 21.6979ZM41.25 21.6979C41.0511 21.6979 40.8603 21.6189 40.7197 21.4782C40.579 21.3376 40.5 21.1468 40.5 20.9479V19.4479C40.5 15.7264 37.4715 12.6979 33.75 12.6979C33.5511 12.6979 33.3603 12.6189 33.2197 12.4782C33.079 12.3376 33 12.1468 33 11.9479C33 11.749 33.079 11.5582 33.2197 11.4176C33.3603 11.2769 33.5511 11.1979 33.75 11.1979C38.298 11.1979 42 14.8984 42 19.4479V20.9479C42 21.1468 41.921 21.3376 41.7803 21.4782C41.6397 21.6189 41.4489 21.6979 41.25 21.6979Z" fill="#FFBB0B" stroke="#FFBB0B" stroke-width="0.428571"/>
<path id="Vector_4" d="M36.75 41.1979H11.25C8.355 41.1979 6 38.8429 6 35.9479V20.9479C6 18.0529 8.355 15.6979 11.25 15.6979H36.75C39.645 15.6979 42 18.0529 42 20.9479V35.9479C42 38.8429 39.645 41.1979 36.75 41.1979ZM11.25 17.1979C10.2558 17.1991 9.30267 17.5945 8.59966 18.2975C7.89666 19.0005 7.50119 19.9537 7.5 20.9479V35.9479C7.5 38.0149 9.1815 39.6979 11.25 39.6979H36.75C38.8185 39.6979 40.5 38.0149 40.5 35.9479V20.9479C40.5 18.8809 38.8185 17.1979 36.75 17.1979H11.25Z" fill="#3FA9F5" stroke="#3FA9F5" stroke-width="0.428571"/>
</g>
</g>
</svg>
