<svg width="57" height="188" viewBox="0 0 57 188" fill="none" xmlns="http://www.w3.org/2000/svg">
<g id="f_1_">
<g id="XMLID_2871_">
<g id="XMLID_3037_">
<g id="XMLID_3057_">
<path id="XMLID_3059_" d="M33.9683 0.246238C33.9683 1.67018 32.8242 2.82451 31.4129 2.82451C30.0016 2.82451 28.8574 1.67018 28.8574 0.246238C28.8574 -1.1777 30.0016 -2.33203 31.4129 -2.33203C32.8242 -2.33203 33.9683 -1.1777 33.9683 0.246238Z" fill="white"/>
<path id="XMLID_3058_" d="M36.7129 5.03097C35.4104 6.49871 33.5179 7.42215 31.412 7.42215C27.4836 7.42215 24.2988 4.20914 24.2988 0.24623C24.2988 -3.71668 27.4836 -6.92969 31.412 -6.92969C33.4722 -6.92969 35.3278 -6.04613 36.6269 -4.63379" stroke="white" stroke-width="2.90008" stroke-miterlimit="10" stroke-linecap="round" stroke-linejoin="round"/>
</g>
<g id="XMLID_3054_">
<path id="XMLID_3056_" d="M36.7129 24.9275C35.4104 26.3952 33.5179 27.3186 31.412 27.3186C27.4836 27.3186 24.2988 24.1056 24.2988 20.1427C24.2988 16.1798 27.4836 12.9668 31.412 12.9668C33.1947 12.9668 34.8243 13.6282 36.0724 14.7213" stroke="white" stroke-width="2.90008" stroke-miterlimit="10" stroke-linecap="round" stroke-linejoin="round"/>
<path id="XMLID_3055_" d="M33.9683 20.3009C33.9683 21.7249 32.8242 22.8792 31.4129 22.8792C30.0016 22.8792 28.8574 21.7249 28.8574 20.3009C28.8574 18.877 30.0016 17.7227 31.4129 17.7227C32.8242 17.7227 33.9683 18.877 33.9683 20.3009Z" fill="white"/>
</g>
<g id="XMLID_3051_">
<path id="XMLID_3302_" d="M28.0954 10.2824C28.0954 10.2824 27.9661 10.2547 27.7241 10.2027C27.6031 10.1794 27.4544 10.1507 27.2789 10.1172C27.191 10.1021 27.0977 10.0788 26.9961 10.0667C26.8916 10.0613 26.7808 10.0555 26.6636 10.0496C26.4279 10.0399 26.1592 10.022 25.8661 10.0195C25.5803 10.0307 25.2712 10.0618 24.9344 10.089C24.6001 10.1245 24.255 10.2159 23.8779 10.2873C23.5056 10.3719 23.1328 10.5191 22.7265 10.6479C22.3411 10.8141 21.9324 10.9925 21.528 11.2117C21.1339 11.4465 20.713 11.6841 20.3286 11.9932C19.5237 12.5725 18.7889 13.3399 18.1318 14.2167C17.9763 14.4422 17.8154 14.6687 17.6628 14.9029C17.5146 15.1396 17.3921 15.3938 17.2555 15.6431L17.0558 16.0222L16.8896 16.4193C16.7846 16.6871 16.6675 16.9539 16.5819 17.2319C16.4216 17.7908 16.2422 18.3541 16.1727 18.9421C16.1241 19.2337 16.075 19.5258 16.0668 19.8213L16.04 20.2641L16.0274 20.4857L16.0211 20.5965L16.0182 20.6519L16.0167 20.6796L16.0162 20.6937C16.0167 20.7365 16.0138 20.6169 16.0177 20.7933L16.0614 21.5574C16.0726 21.693 16.0677 21.7935 16.0925 21.9568L16.161 22.4263C16.2339 23.0727 16.4109 23.6272 16.5698 24.1857C16.6539 24.4642 16.7729 24.7305 16.874 24.9998L17.0392 25.3973L17.238 25.7769C17.3741 26.0267 17.4961 26.2814 17.6434 26.5185C17.7945 26.7542 17.9549 26.9812 18.1099 27.2067C18.7651 28.0859 19.4975 28.8562 20.3004 29.438C20.6843 29.749 21.1052 29.9867 21.4979 30.2234C21.9023 30.444 22.3105 30.6229 22.6954 30.791C23.1017 30.9208 23.4745 31.0681 23.8463 31.1546C24.2234 31.227 24.568 31.3184 24.9029 31.3558C25.2402 31.3835 25.5492 31.416 25.835 31.4277C26.1237 31.4248 26.3876 31.4068 26.6214 31.3976C26.8552 31.3922 27.0622 31.3747 27.243 31.332C27.4213 31.2984 27.5725 31.2702 27.6955 31.2474C27.9365 31.1959 28.0653 31.1682 28.0653 31.1682C28.0653 31.1682 27.9394 31.1273 27.7028 31.0505C27.469 30.9713 27.1263 30.8936 26.7142 30.722C26.5076 30.6404 26.2807 30.5587 26.0411 30.4562C25.8063 30.3318 25.5522 30.2175 25.2878 30.0883C25.0258 29.9512 24.76 29.7821 24.48 29.6212C24.204 29.4506 23.9328 29.2411 23.6465 29.0463C23.1012 28.605 22.534 28.1228 22.0359 27.5265C21.51 26.9603 21.0722 26.2755 20.6702 25.5655C20.2688 24.8481 19.9956 24.051 19.7599 23.2428L19.6263 22.6217C19.5723 22.4088 19.5758 22.2329 19.5383 22.0385L19.4936 21.7532C19.4751 21.6657 19.48 21.5097 19.4722 21.3911L19.4416 20.6266C19.4459 20.7948 19.443 20.6675 19.444 20.7025L19.4445 20.6923L19.4455 20.6723L19.4474 20.632L19.4513 20.5518L19.4586 20.3914L19.4712 20.0707C19.4688 19.8553 19.5038 19.6449 19.5354 19.434C19.5747 19.225 19.5753 19.0083 19.6297 18.8032L19.7653 18.1825C20 17.3733 20.28 16.5782 20.6809 15.8609C21.0853 15.1518 21.5251 14.4675 22.0524 13.9022C22.553 13.3074 23.1216 12.8267 23.6689 12.3869C23.9561 12.1925 24.2288 11.9849 24.5048 11.8144C24.7853 11.6549 25.052 11.4873 25.3145 11.3502C25.5798 11.2224 25.8341 11.1082 26.0693 10.9847C26.305 10.8841 26.5271 10.8039 26.7322 10.7233C27.1356 10.5532 27.5059 10.4749 27.7349 10.3976C27.9701 10.3228 28.0954 10.2824 28.0954 10.2824Z" fill="white"/>
</g>
<g id="XMLID_3048_">
<path id="XMLID_3299_" d="M28.0954 -10.5242C28.0954 -10.5242 27.9661 -10.5519 27.7241 -10.6039C27.6031 -10.6272 27.4544 -10.6559 27.2789 -10.6894C27.191 -10.7045 27.0977 -10.7278 26.9961 -10.74C26.8916 -10.7453 26.7808 -10.7511 26.6636 -10.757C26.4279 -10.7667 26.1592 -10.7847 25.8661 -10.7871C25.5803 -10.7759 25.2712 -10.7448 24.9344 -10.7176C24.6001 -10.6821 24.255 -10.5908 23.8779 -10.5193C23.5056 -10.4347 23.1328 -10.2875 22.7265 -10.1587C22.3411 -9.99247 21.9324 -9.81412 21.528 -9.59493C21.1339 -9.36019 20.713 -9.12253 20.3286 -8.81294C19.5237 -8.23362 18.7889 -7.4662 18.1318 -6.58945C17.9763 -6.36394 17.8154 -6.13746 17.6628 -5.90321C17.5146 -5.66652 17.3921 -5.41233 17.2555 -5.16301L17.0558 -4.78394L16.8896 -4.38686C16.7846 -4.11907 16.6675 -3.85226 16.5819 -3.57426C16.4216 -3.01535 16.2422 -2.45208 16.1727 -1.86401C16.1241 -1.5724 16.075 -1.2803 16.0668 -0.984807L16.04 -0.542048L16.0274 -0.320432L16.0211 -0.209639L16.0182 -0.154226L16.0167 -0.126521L16.0162 -0.112431C16.0167 -0.0696621 16.0138 -0.188725 16.0177 -0.0127907L16.0614 0.751225C16.0726 0.886335 16.0677 0.987406 16.0925 1.1507L16.161 1.62019C16.2339 2.26658 16.4109 2.82111 16.5698 3.37954C16.6539 3.65802 16.7729 3.92435 16.874 4.19359L17.0392 4.59118L17.238 4.97072C17.3741 5.22053 17.4961 5.4752 17.6434 5.71237C17.7945 5.94808 17.9549 6.17506 18.1099 6.40057C18.7651 7.27975 19.4975 8.05008 20.3004 8.63183C20.6843 8.94239 21.1052 9.18055 21.4979 9.41723C21.9023 9.63788 22.3105 9.81672 22.6954 9.98488C23.1017 10.1146 23.4745 10.2619 23.8463 10.3484C24.2234 10.4208 24.568 10.5122 24.9029 10.5496C25.2402 10.5773 25.5492 10.6099 25.835 10.6215C26.1237 10.6186 26.3876 10.6006 26.6214 10.5914C26.8552 10.5861 27.0622 10.5686 27.243 10.5258C27.4213 10.4923 27.5725 10.4641 27.6955 10.4412C27.9365 10.3897 28.0653 10.362 28.0653 10.362C28.0653 10.362 27.9394 10.3212 27.7028 10.2444C27.469 10.1652 27.1263 10.0874 26.7142 9.91588C26.5076 9.83423 26.2807 9.75258 26.0411 9.65003C25.8063 9.52562 25.5522 9.41139 25.2878 9.28212C25.0258 9.14506 24.76 8.97593 24.48 8.81506C24.204 8.64447 23.9328 8.43501 23.6465 8.24012C23.1012 7.79883 22.534 7.3167 22.0359 6.72037C21.51 6.15417 21.0722 5.46937 20.6702 4.75931C20.2688 4.04196 19.9956 3.24491 19.7599 2.43668L19.6263 1.81558C19.5723 1.60271 19.5758 1.42677 19.5383 1.23237L19.4936 0.947063C19.4751 0.859582 19.48 0.703576 19.4722 0.584989L19.4416 -0.1795C19.4459 -0.0113412 19.443 -0.138673 19.444 -0.10368L19.4445 -0.113884L19.4455 -0.133818L19.4474 -0.173657L19.4513 -0.253866L19.4586 -0.414228L19.4712 -0.73501C19.4688 -0.950312 19.5038 -1.16075 19.5354 -1.37168C19.5747 -1.58066 19.5753 -1.79741 19.6297 -2.00251L19.7653 -2.62316C20 -3.43236 20.28 -4.22697 20.6809 -4.94481C21.0853 -5.65389 21.5251 -6.33818 22.0524 -6.9034C22.553 -7.49828 23.1216 -7.97896 23.6689 -8.4188C23.9561 -8.6132 24.2288 -8.82072 24.5048 -8.99131C24.7853 -9.15072 25.052 -9.3184 25.3145 -9.45545C25.5798 -9.58327 25.8341 -9.69749 26.0693 -9.82094C26.305 -9.92154 26.5271 -10.0017 26.7322 -10.0824C27.1356 -10.2525 27.5059 -10.3307 27.7349 -10.408C27.9701 -10.4838 28.0954 -10.5242 28.0954 -10.5242Z" fill="white"/>
</g>
<g id="XMLID_3038_">
<g id="XMLID_3045_">
<path id="XMLID_3228_" d="M20.963 10.3307C20.963 10.3307 20.6675 10.2855 20.1499 10.2068C19.8937 10.1548 19.5919 10.0761 19.2517 9.99003C18.9139 9.87096 18.532 9.76356 18.1422 9.5745C17.9439 9.49237 17.7427 9.39761 17.5434 9.28048C17.3412 9.17112 17.1342 9.06129 16.9354 8.91986C16.7327 8.78766 16.5272 8.654 16.3323 8.49119C16.1316 8.34053 15.9342 8.17821 15.7461 7.99693C15.3583 7.6543 15.0016 7.25139 14.6594 6.83537C14.3231 6.41108 14.0087 5.96201 13.7282 5.49009C12.5915 3.60827 11.9427 1.46643 11.5995 -0.139343C11.428 -0.944659 11.3264 -1.61924 11.2725 -2.08094C11.2462 -2.31083 11.2287 -2.49016 11.2219 -2.60243C11.2122 -2.72393 11.2165 -2.75456 11.218 -2.7463C10.9444 -4.09449 9.62926 -4.96589 8.28107 -4.69178C6.93289 -4.41816 6.06145 -3.10301 6.33556 -1.75482C6.3375 -1.74705 6.37059 -1.63186 6.42502 -1.48266C6.48043 -1.32373 6.56208 -1.10797 6.67046 -0.836289C6.88673 -0.295362 7.21378 0.451154 7.65654 1.31625C8.53961 3.03915 9.92039 5.26117 11.7988 7.06523C12.2634 7.51673 12.762 7.9347 13.2733 8.3133C13.7924 8.68509 14.3158 9.02773 14.8568 9.29795C15.1207 9.44229 15.3894 9.56527 15.6577 9.67316C15.9187 9.79272 16.187 9.88164 16.4465 9.96621C16.7012 10.06 16.9597 10.1208 17.2071 10.1796C17.4515 10.2466 17.6926 10.2904 17.9249 10.3215C18.3832 10.409 18.8119 10.4158 19.1817 10.444C19.5593 10.4401 19.8845 10.4362 20.1455 10.4202C20.6655 10.3638 20.963 10.3307 20.963 10.3307Z" fill="white"/>
</g>
<g id="XMLID_3042_">
<path id="XMLID_3225_" d="M20.4011 10.2075C20.4011 10.2075 20.0973 10.1817 19.5651 10.1365C19.2998 10.1132 18.9703 10.1282 18.5864 10.1239C18.3939 10.1229 18.1956 10.1511 17.9808 10.1657C17.7669 10.1832 17.5395 10.1987 17.3072 10.2463C16.8357 10.3134 16.3313 10.4364 15.7981 10.5972C15.5386 10.6925 15.264 10.7814 14.9919 10.8947C14.7275 11.0205 14.4426 11.1333 14.1734 11.283C13.6315 11.577 13.0784 11.9167 12.5676 12.3274C12.0408 12.7245 11.5621 13.1906 11.0941 13.6732C10.6479 14.1684 10.2119 14.6846 9.83769 15.2245C9.44986 15.7591 9.11504 16.3117 8.80303 16.8556C8.50219 17.4023 8.22224 17.9413 7.9909 18.4638C7.75178 18.9848 7.55056 19.4873 7.37366 19.9558C7.02519 20.8948 6.78804 21.7001 6.63883 22.2818C6.56496 22.5744 6.51049 22.8063 6.47598 22.9773C6.44099 23.1372 6.42301 23.2621 6.42253 23.2714C6.33164 24.6443 7.3712 25.8307 8.74417 25.9211C10.1171 26.0115 11.3035 24.9724 11.3939 23.5994C11.3934 23.6086 11.3847 23.5824 11.3788 23.4604C11.3711 23.3491 11.3653 23.1678 11.3623 22.9355C11.358 22.4685 11.3769 21.7813 11.4571 20.9565C11.617 19.3109 12.0598 17.0991 13.1013 15.1497C13.3705 14.6744 13.6543 14.1956 13.9911 13.7704C14.3143 13.3301 14.6871 12.9422 15.0696 12.5806C15.2591 12.3969 15.4686 12.2463 15.6644 12.0791C15.8676 11.924 16.079 11.7904 16.2817 11.6475C16.7011 11.3919 17.1166 11.1649 17.522 10.9953C17.7203 10.8966 17.9205 10.83 18.1115 10.7634C18.3025 10.6998 18.4843 10.623 18.6578 10.5788C19.0067 10.4927 19.312 10.396 19.5759 10.3508C20.1008 10.2594 20.4011 10.2075 20.4011 10.2075Z" fill="white"/>
</g>
<g id="XMLID_3039_">
<path id="XMLID_3222_" d="M13.9097 10.3133L4.96329 7.84388C3.58643 7.46382 2.16241 8.27204 1.78235 9.6489C1.40229 11.0258 2.21052 12.4498 3.58738 12.8298C4.0554 12.9591 4.53949 12.9475 4.97593 12.8264L13.9097 10.3133Z" fill="white"/>
</g>
</g>
</g>
<g id="XMLID_2964_">
<g id="XMLID_3034_">
<path id="XMLID_3036_" d="M33.9683 41.9982C33.9683 43.4222 32.8242 44.5765 31.4129 44.5765C30.0016 44.5765 28.8574 43.4222 28.8574 41.9982C28.8574 40.5743 30.0016 39.4199 31.4129 39.4199C32.8242 39.4199 33.9683 40.5743 33.9683 41.9982Z" fill="white"/>
<path id="XMLID_3035_" d="M36.7129 46.7829C35.4104 48.2507 33.5179 49.1741 31.412 49.1741C27.4836 49.1741 24.2988 45.9611 24.2988 41.9982C24.2988 38.0353 27.4836 34.8223 31.412 34.8223C33.4722 34.8223 35.3278 35.7058 36.6269 37.1182" stroke="white" stroke-width="2.90008" stroke-miterlimit="10" stroke-linecap="round" stroke-linejoin="round"/>
</g>
<g id="XMLID_3031_">
<path id="XMLID_3033_" d="M36.7129 66.6774C35.4104 68.1452 33.5179 69.0686 31.412 69.0686C27.4836 69.0686 24.2988 65.8556 24.2988 61.8927C24.2988 57.9298 27.4836 54.7168 31.412 54.7168C33.1947 54.7168 34.8243 55.3782 36.0724 56.4713" stroke="white" stroke-width="2.90008" stroke-miterlimit="10" stroke-linecap="round" stroke-linejoin="round"/>
<path id="XMLID_3032_" d="M33.9683 62.0529C33.9683 63.4768 32.8242 64.6311 31.4129 64.6311C30.0016 64.6311 28.8574 63.4768 28.8574 62.0529C28.8574 60.6289 30.0016 59.4746 31.4129 59.4746C32.8242 59.4746 33.9683 60.6289 33.9683 62.0529Z" fill="white"/>
</g>
<g id="XMLID_3028_">
<path id="XMLID_3219_" d="M28.0954 52.0325C28.0954 52.0325 27.9661 52.0048 27.7241 51.9528C27.6031 51.9294 27.4544 51.9007 27.2789 51.8672C27.191 51.8521 27.0977 51.8288 26.9961 51.8167C26.8916 51.8113 26.7808 51.8055 26.6636 51.7997C26.4279 51.7899 26.1592 51.772 25.8661 51.7695C25.5803 51.7807 25.2712 51.8118 24.9344 51.839C24.6001 51.8745 24.255 51.9659 23.8779 52.0373C23.5056 52.1219 23.1328 52.2692 22.7265 52.398C22.3411 52.5642 21.9324 52.7425 21.528 52.9617C21.1339 53.1965 20.713 53.4341 20.3286 53.7437C19.5237 54.323 18.7889 55.0904 18.1318 55.9672C17.9763 56.1927 17.8154 56.4192 17.6628 56.6534C17.5146 56.8901 17.3921 57.1443 17.2555 57.3936L17.0558 57.7727L16.8896 58.1698C16.7846 58.4376 16.6675 58.7044 16.5819 58.9824C16.4216 59.5413 16.2422 60.1046 16.1727 60.6926C16.1241 60.9842 16.075 61.2763 16.0668 61.5718L16.04 62.0151L16.0274 62.2367L16.0211 62.3475L16.0182 62.4029L16.0167 62.4306L16.0162 62.4447C16.0167 62.4875 16.0138 62.3679 16.0177 62.5443L16.0614 63.3083C16.0726 63.4439 16.0677 63.5445 16.0925 63.7078L16.161 64.1773C16.2339 64.8237 16.4109 65.3783 16.5698 65.9367C16.6539 66.2152 16.7729 66.4815 16.874 66.7507L17.0392 67.1483L17.238 67.5279C17.3741 67.7777 17.4961 68.0323 17.6434 68.2695C17.7945 68.5052 17.9549 68.7322 18.1099 68.9577C18.7651 69.8369 19.4975 70.6072 20.3004 71.189C20.6843 71.5 21.1052 71.7377 21.4979 71.9743C21.9023 72.195 22.3105 72.3739 22.6954 72.542C23.1017 72.6718 23.4745 72.819 23.8463 72.9055C24.2234 72.978 24.568 73.0693 24.9029 73.1068C25.2402 73.1345 25.5492 73.167 25.835 73.1787C26.1237 73.1758 26.3876 73.1578 26.6214 73.1485C26.8552 73.1432 27.0622 73.1257 27.243 73.0829C27.4213 73.0494 27.5725 73.0212 27.6955 72.9984C27.9365 72.9468 28.0653 72.9192 28.0653 72.9192C28.0653 72.9192 27.9394 72.8783 27.7028 72.8015C27.469 72.7223 27.1263 72.6446 26.7142 72.473C26.5076 72.3913 26.2807 72.3097 26.0411 72.2071C25.8063 72.0827 25.5522 71.9685 25.2878 71.8392C25.0258 71.7022 24.76 71.533 24.48 71.3722C24.204 71.2016 23.9328 70.9921 23.6465 70.7972C23.1012 70.3559 22.534 69.8738 22.0359 69.2775C21.51 68.7113 21.0722 68.0265 20.6702 67.3165C20.2688 66.5991 19.9956 65.8021 19.7599 64.9938L19.6263 64.3727C19.5723 64.1598 19.5758 63.9839 19.5383 63.7895L19.4936 63.5042C19.4751 63.4162 19.48 63.2607 19.4722 63.1421L19.4416 62.3776C19.4459 62.5458 19.443 62.4185 19.444 62.4535L19.4445 62.4433L19.4455 62.4233L19.4474 62.3835L19.4513 62.3033L19.4586 62.1429L19.4712 61.8221C19.4688 61.6068 19.5038 61.3964 19.5354 61.1855C19.5747 60.9765 19.5753 60.7597 19.6297 60.5546L19.7653 59.9335C20 59.1243 20.28 58.3297 20.6809 57.6118C21.0853 56.9027 21.5251 56.2185 22.0524 55.6532C22.553 55.0584 23.1216 54.5777 23.6689 54.1378C23.9561 53.9434 24.2288 53.7359 24.5048 53.5653C24.7853 53.4059 25.052 53.2382 25.3145 53.1012C25.5798 52.9734 25.8341 52.8592 26.0693 52.7357C26.305 52.6351 26.5271 52.5549 26.7322 52.4742C27.1356 52.3041 27.5059 52.2259 27.7349 52.1486C27.9701 52.0728 28.0954 52.0325 28.0954 52.0325Z" fill="white"/>
</g>
<g id="XMLID_3025_">
<path id="XMLID_3216_" d="M28.0954 31.2258C28.0954 31.2258 27.9661 31.1981 27.7241 31.1461C27.6031 31.1228 27.4544 31.0941 27.2789 31.0606C27.191 31.0455 27.0977 31.0217 26.9961 31.01C26.8916 31.0047 26.7808 30.9988 26.6636 30.993C26.4279 30.9833 26.1592 30.9653 25.8661 30.9629C25.5803 30.9741 25.2712 31.0052 24.9344 31.0324C24.6001 31.0679 24.255 31.1592 23.8779 31.2307C23.5056 31.3152 23.1328 31.4625 22.7265 31.5913C22.3411 31.7575 21.9324 31.9359 21.528 32.1551C21.1339 32.3898 20.713 32.6274 20.3286 32.937C19.5237 33.5164 18.7889 34.2838 18.1318 35.1605C17.9763 35.386 17.8154 35.6125 17.6628 35.8468C17.5146 36.0834 17.3921 36.3376 17.2555 36.587L17.0558 36.9661L16.8896 37.3631C16.7846 37.6309 16.6675 37.8977 16.5819 38.1757C16.4216 38.7346 16.2422 39.2979 16.1727 39.886C16.1241 40.1776 16.075 40.4697 16.0668 40.7652L16.04 41.2079L16.0274 41.4295L16.0211 41.5404L16.0182 41.5958L16.0167 41.6235L16.0162 41.6376C16.0167 41.6803 16.0138 41.5608 16.0177 41.7372L16.0614 42.5012C16.0726 42.6368 16.0677 42.7374 16.0925 42.9007L16.161 43.3702C16.2339 44.0166 16.4109 44.5711 16.5698 45.1295C16.6539 45.408 16.7729 45.6743 16.874 45.9436L17.0392 46.3411L17.238 46.7207C17.3741 46.9705 17.4961 47.2252 17.6434 47.4624C17.7945 47.6981 17.9549 47.9251 18.1099 48.1506C18.7651 49.0298 19.4975 49.8001 20.3004 50.3818C20.6843 50.6924 21.1052 50.9305 21.4979 51.1672C21.9023 51.3879 22.3105 51.5667 22.6954 51.7349C23.1017 51.8646 23.4745 52.0119 23.8463 52.0984C24.2234 52.1708 24.568 52.2622 24.9029 52.2996C25.2402 52.3273 25.5492 52.3599 25.835 52.3715C26.1237 52.3686 26.3876 52.3506 26.6214 52.3414C26.8552 52.3361 27.0622 52.3186 27.243 52.2758C27.4213 52.2423 27.5725 52.2141 27.6955 52.1912C27.9365 52.1397 28.0653 52.112 28.0653 52.112C28.0653 52.112 27.9394 52.0712 27.7028 51.9944C27.469 51.9152 27.1263 51.8374 26.7142 51.6658C26.5076 51.5842 26.2807 51.5026 26.0411 51.4C25.8063 51.2756 25.5522 51.1614 25.2878 51.0321C25.0258 50.8951 24.76 50.7259 24.48 50.5651C24.204 50.3945 23.9328 50.185 23.6465 49.9901C23.1012 49.5488 22.534 49.0667 22.0359 48.4703C21.51 47.9041 21.0722 47.2194 20.6702 46.5093C20.2688 45.792 19.9956 44.9949 19.7599 44.1867L19.6263 43.5656C19.5723 43.3527 19.5758 43.1767 19.5383 42.9823L19.4936 42.6971C19.4751 42.6096 19.48 42.4536 19.4722 42.335L19.4416 41.5705C19.4459 41.7387 19.443 41.6113 19.444 41.6463L19.4445 41.6361L19.4455 41.6162L19.4474 41.5758L19.4513 41.4957L19.4586 41.3353L19.4712 41.0145C19.4688 40.7992 19.5038 40.5887 19.5354 40.3778C19.5747 40.1688 19.5753 39.9521 19.6297 39.747L19.7653 39.1264C20 38.3172 20.28 37.5225 20.6809 36.8047C21.0853 36.0956 21.5251 35.4113 22.0524 34.8461C22.553 34.2512 23.1216 33.7705 23.6689 33.3307C23.9561 33.1363 24.2288 32.9288 24.5048 32.7582C24.7853 32.5988 25.052 32.4311 25.3145 32.294C25.5798 32.1662 25.8341 32.052 26.0693 31.9286C26.305 31.828 26.5271 31.7478 26.7322 31.6671C27.1356 31.497 27.5059 31.4188 27.7349 31.3415C27.9701 31.2662 28.0954 31.2258 28.0954 31.2258Z" fill="white"/>
</g>
<g id="XMLID_2965_">
<g id="XMLID_2972_">
<path id="XMLID_3205_" d="M20.962 52.0807C20.962 52.0807 20.6665 52.0355 20.1489 51.9568C19.8928 51.9048 19.591 51.8261 19.2507 51.74C18.913 51.6205 18.531 51.5136 18.1412 51.3245C17.9429 51.2424 17.7417 51.1476 17.5424 51.0304C17.3402 50.9211 17.1332 50.8113 16.9344 50.6698C16.7318 50.5376 16.5262 50.404 16.3313 50.2412C16.1306 50.0905 15.9333 49.9282 15.7452 49.7469C15.3573 49.4043 15.0006 49.0014 14.6585 48.5853C14.3222 48.1611 14.0077 47.712 13.7273 47.2401C12.5905 45.3582 11.9417 43.2164 11.5986 41.6107C11.427 40.8053 11.3254 40.1307 11.2715 39.669C11.2452 39.4391 11.2277 39.2598 11.2209 39.1475C11.2112 39.026 11.2156 38.9954 11.217 39.0037C10.9434 37.6555 9.62828 36.7841 8.2801 37.0582C6.93191 37.3318 6.06047 38.647 6.33458 39.9951C6.33653 40.0029 6.36961 40.1181 6.42405 40.2673C6.47945 40.4262 6.5611 40.642 6.66948 40.9137C6.88576 41.4546 7.21281 42.2012 7.65556 43.0662C8.53864 44.7891 9.91942 47.0112 11.7978 48.8152C12.2625 49.2667 12.7611 49.6847 13.2724 50.0633C13.7914 50.4351 14.3149 50.7777 14.8558 51.0479C15.1197 51.1923 15.3884 51.3153 15.6567 51.4232C15.9177 51.5427 16.186 51.6316 16.4455 51.7162C16.7002 51.81 16.9587 51.8708 17.2061 51.9296C17.4506 51.9966 17.6916 52.0404 17.924 52.0715C18.3823 52.159 18.8109 52.1653 19.1807 52.194C19.5584 52.1901 19.8835 52.1862 20.1445 52.1702C20.6645 52.1138 20.962 52.0807 20.962 52.0807Z" fill="white"/>
</g>
<g id="XMLID_2969_">
<path id="XMLID_3202_" d="M20.4011 51.9633C20.4011 51.9633 20.0973 51.9376 19.5651 51.8924C19.2998 51.869 18.9703 51.8841 18.5864 51.8797C18.3939 51.8788 18.1956 51.9069 17.9808 51.9215C17.7669 51.939 17.5395 51.9545 17.3072 52.0022C16.8357 52.0692 16.3313 52.1922 15.7981 52.3531C15.5386 52.4484 15.264 52.5373 14.9919 52.6505C14.7275 52.7764 14.4426 52.8891 14.1734 53.0388C13.6315 53.3329 13.0784 53.6726 12.5676 54.0833C12.0408 54.4804 11.5621 54.9464 11.0941 55.429C10.6479 55.9243 10.2119 56.4404 9.83769 56.9804C9.44986 57.515 9.11504 58.0676 8.80303 58.6114C8.50219 59.1582 8.22224 59.6972 7.9909 60.2196C7.75178 60.7406 7.55056 61.2431 7.37366 61.7117C7.02519 62.6506 6.78804 63.4559 6.63883 64.0377C6.56496 64.3303 6.51049 64.5621 6.47598 64.7332C6.44099 64.8931 6.42301 65.018 6.42253 65.0272C6.33164 66.4002 7.3712 67.5865 8.74417 67.6769C10.1171 67.7673 11.3035 66.7282 11.3939 65.3553C11.3934 65.3645 11.3847 65.3383 11.3788 65.2163C11.3711 65.105 11.3653 64.9237 11.3623 64.6914C11.358 64.2243 11.3769 63.5371 11.4571 62.7124C11.617 61.0667 12.0598 58.8549 13.1013 56.9055C13.3705 56.4302 13.6543 55.9515 13.9911 55.5262C14.3143 55.0859 14.6871 54.6981 15.0696 54.3365C15.2591 54.1528 15.4686 54.0021 15.6644 53.8349C15.8676 53.6799 16.079 53.5462 16.2817 53.4033C16.7011 53.1477 17.1166 52.9207 17.522 52.7511C17.7203 52.6525 17.9205 52.5859 18.1115 52.5193C18.3025 52.4556 18.4843 52.3788 18.6578 52.3346C19.0067 52.2486 19.312 52.1519 19.5759 52.1067C20.1008 52.0153 20.4011 51.9633 20.4011 51.9633Z" fill="white"/>
</g>
<g id="XMLID_2966_">
<path id="XMLID_3199_" d="M13.9097 52.0633L4.96329 49.5939C3.58643 49.2138 2.16241 50.022 1.78235 51.3989C1.40229 52.7758 2.21052 54.1998 3.58738 54.5798C4.0554 54.7091 4.53949 54.6974 4.97593 54.5764L13.9097 52.0633Z" fill="white"/>
</g>
</g>
</g>
<g id="XMLID_2941_">
<g id="XMLID_2961_">
<path id="XMLID_2963_" d="M33.9683 83.7501C33.9683 85.1741 32.8242 86.3284 31.4129 86.3284C30.0016 86.3284 28.8574 85.1741 28.8574 83.7501C28.8574 82.3262 30.0016 81.1719 31.4129 81.1719C32.8242 81.1719 33.9683 82.3262 33.9683 83.7501Z" fill="white"/>
<path id="XMLID_2962_" d="M36.7129 88.5369C35.4104 90.0046 33.5179 90.928 31.412 90.928C27.4836 90.928 24.2988 87.715 24.2988 83.7521C24.2988 79.7892 27.4836 76.5762 31.412 76.5762C33.4722 76.5762 35.3278 77.4597 36.6269 78.8721" stroke="white" stroke-width="2.90008" stroke-miterlimit="10" stroke-linecap="round" stroke-linejoin="round"/>
</g>
<g id="XMLID_2958_">
<path id="XMLID_2960_" d="M36.7129 108.435C35.4104 109.903 33.5179 110.826 31.412 110.826C27.4836 110.826 24.2988 107.613 24.2988 103.651C24.2988 99.6876 27.4836 96.4746 31.412 96.4746C33.1947 96.4746 34.8243 97.1361 36.0724 98.2291" stroke="white" stroke-width="2.90008" stroke-miterlimit="10" stroke-linecap="round" stroke-linejoin="round"/>
<path id="XMLID_2959_" d="M33.9683 103.809C33.9683 105.233 32.8242 106.387 31.4129 106.387C30.0016 106.387 28.8574 105.233 28.8574 103.809C28.8574 102.385 30.0016 101.23 31.4129 101.23C32.8242 101.23 33.9683 102.385 33.9683 103.809Z" fill="white"/>
</g>
<g id="XMLID_2955_">
<path id="XMLID_3196_" d="M28.0954 93.7844C28.0954 93.7844 27.9661 93.7567 27.7241 93.7047C27.6031 93.6814 27.4544 93.6527 27.2789 93.6192C27.191 93.6041 27.0977 93.5808 26.9961 93.5686C26.8916 93.5633 26.7808 93.5575 26.6636 93.5516C26.4279 93.5419 26.1592 93.5239 25.8661 93.5215C25.5803 93.5327 25.2712 93.5638 24.9344 93.591C24.6001 93.6265 24.255 93.7178 23.8779 93.7893C23.5056 93.8738 23.1328 94.0211 22.7265 94.1499C22.3411 94.3161 21.9324 94.4945 21.528 94.7137C21.1339 94.9484 20.713 95.1861 20.3286 95.4957C19.5237 96.075 18.7889 96.8424 18.1318 97.7191C17.9763 97.9446 17.8154 98.1711 17.6628 98.4054C17.5146 98.6421 17.3921 98.8962 17.2555 99.1456L17.0558 99.5247L16.8896 99.9217C16.7846 100.19 16.6675 100.456 16.5819 100.734C16.4216 101.293 16.2422 101.857 16.1727 102.445C16.1241 102.736 16.075 103.028 16.0668 103.324L16.04 103.767L16.0274 103.988L16.0211 104.099L16.0182 104.154L16.0167 104.182L16.0162 104.196C16.0167 104.239 16.0138 104.12 16.0177 104.296L16.0614 105.06C16.0726 105.195 16.0677 105.296 16.0925 105.459L16.161 105.929C16.2339 106.575 16.4109 107.13 16.5698 107.688C16.6539 107.967 16.7729 108.233 16.874 108.502L17.0392 108.9L17.238 109.279C17.3741 109.529 17.4961 109.784 17.6434 110.021C17.7945 110.257 17.9549 110.484 18.1099 110.709C18.7651 111.588 19.4975 112.359 20.3004 112.94C20.6843 113.251 21.1052 113.489 21.4979 113.726C21.9023 113.946 22.3105 114.125 22.6954 114.293C23.1017 114.423 23.4745 114.57 23.8463 114.657C24.2234 114.729 24.568 114.821 24.9029 114.858C25.2402 114.886 25.5492 114.918 25.835 114.93C26.1237 114.927 26.3876 114.909 26.6214 114.9C26.8552 114.895 27.0622 114.877 27.243 114.834C27.4213 114.801 27.5725 114.773 27.6955 114.75C27.9365 114.698 28.0653 114.671 28.0653 114.671C28.0653 114.671 27.9394 114.63 27.7028 114.553C27.469 114.474 27.1263 114.396 26.7142 114.224C26.5076 114.143 26.2807 114.061 26.0411 113.959C25.8063 113.834 25.5522 113.72 25.2878 113.591C25.0258 113.454 24.76 113.285 24.48 113.124C24.204 112.953 23.9328 112.744 23.6465 112.549C23.1012 112.107 22.534 111.625 22.0359 111.029C21.51 110.463 21.0722 109.778 20.6702 109.068C20.2688 108.351 19.9956 107.554 19.7599 106.745L19.6263 106.124C19.5723 105.911 19.5758 105.735 19.5383 105.541L19.4936 105.256C19.4751 105.168 19.48 105.012 19.4722 104.894L19.4416 104.129C19.4459 104.297 19.443 104.17 19.444 104.205L19.4445 104.195L19.4455 104.175L19.4474 104.135L19.4513 104.055L19.4586 103.894L19.4712 103.574C19.4688 103.358 19.5038 103.148 19.5354 102.937C19.5747 102.728 19.5753 102.511 19.6297 102.306L19.7653 101.685C20 100.876 20.28 100.082 20.6809 99.3638C21.0853 98.6547 21.5251 97.9704 22.0524 97.4052C22.553 96.8103 23.1216 96.3296 23.6689 95.8898C23.9561 95.6954 24.2288 95.4879 24.5048 95.3173C24.7853 95.1579 25.052 94.9902 25.3145 94.8531C25.5798 94.7253 25.8341 94.6111 26.0693 94.4877C26.305 94.3871 26.5271 94.3069 26.7322 94.2262C27.1356 94.0561 27.5059 93.9778 27.7349 93.9006C27.9701 93.8247 28.0954 93.7844 28.0954 93.7844Z" fill="white"/>
</g>
<g id="XMLID_2952_">
<path id="XMLID_3193_" d="M28.0954 72.9797C28.0954 72.9797 27.9661 72.952 27.7241 72.9C27.6031 72.8767 27.4544 72.848 27.2789 72.8145C27.191 72.7994 27.0977 72.7761 26.9961 72.7639C26.8916 72.7586 26.7808 72.7528 26.6636 72.7469C26.4279 72.7372 26.1592 72.7192 25.8661 72.7168C25.5803 72.728 25.2712 72.7591 24.9344 72.7863C24.6001 72.8218 24.255 72.9132 23.8779 72.9846C23.5056 73.0692 23.1328 73.2164 22.7265 73.3452C22.3411 73.5114 21.9324 73.6898 21.528 73.909C21.1339 74.1437 20.713 74.3814 20.3286 74.6905C19.5237 75.2698 18.7889 76.0372 18.1318 76.914C17.9763 77.1395 17.8154 77.366 17.6628 77.6002C17.5146 77.8369 17.3921 78.0911 17.2555 78.3404L17.0558 78.7195L16.8896 79.1166C16.7846 79.3844 16.6675 79.6512 16.5819 79.9292C16.4216 80.4881 16.2422 81.0514 16.1727 81.6394C16.1241 81.931 16.075 82.2231 16.0668 82.5186L16.04 82.9619L16.0274 83.1835L16.0211 83.2943L16.0182 83.3497L16.0167 83.3774L16.0162 83.3915C16.0167 83.4342 16.0138 83.3147 16.0177 83.4911L16.0614 84.2551C16.0726 84.3907 16.0677 84.4913 16.0925 84.6546L16.161 85.1241C16.2339 85.7705 16.4109 86.325 16.5698 86.8834C16.6539 87.1619 16.7729 87.4283 16.874 87.6975L17.0392 88.0951L17.238 88.4747C17.3741 88.7245 17.4961 88.9791 17.6434 89.2163C17.7945 89.4515 17.9549 89.679 18.1099 89.9045C18.7651 90.7837 19.4975 91.554 20.3004 92.1357C20.6843 92.4468 21.1052 92.6845 21.4979 92.9211C21.9023 93.1418 22.3105 93.3206 22.6954 93.4888C23.1017 93.6185 23.4745 93.7658 23.8463 93.8523C24.2234 93.9248 24.568 94.0161 24.9029 94.0535C25.2402 94.0812 25.5492 94.1138 25.835 94.1255C26.1237 94.1225 26.3876 94.1046 26.6214 94.0953C26.8552 94.09 27.0622 94.0725 27.243 94.0297C27.4213 93.9962 27.5725 93.968 27.6955 93.9452C27.9365 93.8936 28.0653 93.8659 28.0653 93.8659C28.0653 93.8659 27.9394 93.8251 27.7028 93.7483C27.469 93.6691 27.1263 93.5913 26.7142 93.4198C26.5076 93.3381 26.2807 93.2565 26.0411 93.1539C25.8063 93.0295 25.5522 92.9153 25.2878 92.786C25.0258 92.649 24.76 92.4798 24.48 92.319C24.204 92.1484 23.9328 91.9389 23.6465 91.744C23.1012 91.3027 22.534 90.8206 22.0359 90.2243C21.51 89.6581 21.0722 88.9733 20.6702 88.2632C20.2688 87.5459 19.9956 86.7488 19.7599 85.9406L19.6263 85.3195C19.5723 85.1066 19.5758 84.9307 19.5383 84.7363L19.4936 84.451C19.4751 84.3635 19.48 84.2075 19.4722 84.0889L19.4416 83.3244C19.4459 83.4926 19.443 83.3652 19.444 83.4002L19.4445 83.39L19.4455 83.3701L19.4474 83.3298L19.4513 83.2496L19.4586 83.0892L19.4712 82.7684C19.4688 82.5531 19.5038 82.3427 19.5354 82.1318C19.5747 81.9228 19.5753 81.706 19.6297 81.5009L19.7653 80.8803C20 80.0711 20.28 79.276 20.6809 78.5586C21.0853 77.8495 21.5251 77.1652 22.0524 76.6C22.553 76.0051 23.1216 75.5245 23.6689 75.0846C23.9561 74.8902 24.2288 74.6827 24.5048 74.5121C24.7853 74.3527 25.052 74.185 25.3145 74.048C25.5798 73.9202 25.8341 73.8059 26.0693 73.6825C26.305 73.5819 26.5271 73.5017 26.7322 73.421C27.1356 73.2509 27.5059 73.1727 27.7349 73.0954C27.9701 73.0201 28.0954 72.9797 28.0954 72.9797Z" fill="white"/>
</g>
<g id="XMLID_2942_">
<g id="XMLID_2949_">
<path id="XMLID_3182_" d="M20.962 93.8327C20.962 93.8327 20.6665 93.7875 20.1489 93.7088C19.8928 93.6568 19.591 93.578 19.2507 93.492C18.913 93.3724 18.531 93.2655 18.1412 93.0765C17.9429 92.9943 17.7417 92.8996 17.5424 92.7824C17.3402 92.6731 17.1332 92.5632 16.9344 92.4218C16.7318 92.2896 16.5262 92.156 16.3313 91.9931C16.1306 91.8425 15.9333 91.6802 15.7452 91.4989C15.3573 91.1562 15.0006 90.7533 14.6585 90.3373C14.3222 89.913 14.0077 89.464 13.7273 88.992C12.5905 87.1102 11.9417 84.9684 11.5986 83.3626C11.427 82.5573 11.3254 81.8827 11.2715 81.421C11.2452 81.1911 11.2277 81.0118 11.2209 80.8995C11.2112 80.778 11.2156 80.7474 11.217 80.7557C10.9434 79.4075 9.62828 78.5361 8.2801 78.8102C6.93191 79.0838 6.06047 80.3989 6.33458 81.7471C6.33653 81.7549 6.36961 81.8701 6.42405 82.0193C6.47945 82.1782 6.5611 82.394 6.66948 82.6657C6.88576 83.2066 7.21281 83.9531 7.65556 84.8182C8.53864 86.5411 9.91942 88.7631 11.7978 90.5672C12.2625 91.0187 12.7611 91.4367 13.2724 91.8153C13.7914 92.1871 14.3149 92.5297 14.8558 92.7999C15.1197 92.9443 15.3884 93.0672 15.6567 93.1751C15.9177 93.2947 16.186 93.3836 16.4455 93.4682C16.7002 93.562 16.9587 93.6227 17.2061 93.682C17.4506 93.7491 17.6916 93.7928 17.924 93.8239C18.3823 93.9114 18.8109 93.9182 19.1807 93.9464C19.5584 93.9425 19.8835 93.9386 20.1445 93.9226C20.6645 93.8657 20.962 93.8327 20.962 93.8327Z" fill="white"/>
</g>
<g id="XMLID_2946_">
<path id="XMLID_3179_" d="M20.4011 93.7114C20.4011 93.7114 20.0973 93.6856 19.5651 93.6404C19.2998 93.6171 18.9703 93.6321 18.5864 93.6278C18.3939 93.6268 18.1956 93.655 17.9808 93.6696C17.7669 93.6871 17.5395 93.7026 17.3072 93.7503C16.8357 93.8173 16.3313 93.9403 15.7981 94.1011C15.5386 94.1964 15.264 94.2853 14.9919 94.3986C14.7275 94.5245 14.4426 94.6372 14.1734 94.7869C13.6315 95.0809 13.0784 95.4207 12.5676 95.8313C12.0408 96.2284 11.5621 96.6945 11.0941 97.1771C10.6479 97.6723 10.2119 98.1885 9.83769 98.7284C9.44986 99.263 9.11504 99.8156 8.80303 100.359C8.50219 100.906 8.22224 101.445 7.9909 101.968C7.75178 102.489 7.55056 102.991 7.37366 103.46C7.02519 104.399 6.78804 105.204 6.63883 105.786C6.56496 106.078 6.51049 106.31 6.47598 106.481C6.44099 106.641 6.42301 106.766 6.42253 106.775C6.33164 108.148 7.3712 109.334 8.74417 109.424C10.1171 109.515 11.3035 108.476 11.3939 107.103C11.3934 107.112 11.3847 107.086 11.3788 106.964C11.3711 106.853 11.3653 106.671 11.3623 106.439C11.358 105.972 11.3769 105.285 11.4571 104.46C11.617 102.814 12.0598 100.602 13.1013 98.6531C13.3705 98.1778 13.6543 97.6991 13.9911 97.2738C14.3143 96.8335 14.6871 96.4457 15.0696 96.0841C15.2591 95.9004 15.4686 95.7497 15.6644 95.5825C15.8676 95.4275 16.079 95.2938 16.2817 95.1509C16.7011 94.8953 17.1166 94.6683 17.522 94.4987C17.7203 94.4 17.9205 94.3335 18.1115 94.2669C18.3025 94.2032 18.4843 94.1264 18.6578 94.0822C19.0067 93.9962 19.312 93.8994 19.5759 93.8543C20.1008 93.7634 20.4011 93.7114 20.4011 93.7114Z" fill="white"/>
</g>
<g id="XMLID_2943_">
<path id="XMLID_3176_" d="M13.9097 93.8133L4.96329 91.3439C3.58643 90.9638 2.16241 91.772 1.78235 93.1489C1.40229 94.5258 2.21052 95.9498 3.58738 96.3298C4.0554 96.4591 4.53949 96.4475 4.97593 96.3264L13.9097 93.8133Z" fill="white"/>
</g>
</g>
</g>
<g id="XMLID_2918_">
<g id="XMLID_2938_">
<path id="XMLID_2940_" d="M33.9683 125.508C33.9683 126.932 32.8242 128.086 31.4129 128.086C30.0016 128.086 28.8574 126.932 28.8574 125.508C28.8574 124.084 30.0016 122.93 31.4129 122.93C32.8242 122.93 33.9683 124.084 33.9683 125.508Z" fill="white"/>
<path id="XMLID_2939_" d="M36.7129 130.295C35.4104 131.762 33.5179 132.686 31.412 132.686C27.4836 132.686 24.2988 129.473 24.2988 125.51C24.2988 121.547 27.4836 118.334 31.412 118.334C33.4722 118.334 35.3278 119.218 36.6269 120.63" stroke="white" stroke-width="2.90008" stroke-miterlimit="10" stroke-linecap="round" stroke-linejoin="round"/>
</g>
<g id="XMLID_2935_">
<path id="XMLID_2937_" d="M36.7129 150.193C35.4104 151.661 33.5179 152.584 31.412 152.584C27.4836 152.584 24.2988 149.371 24.2988 145.408C24.2988 141.445 27.4836 138.232 31.412 138.232C33.1947 138.232 34.8243 138.894 36.0724 139.987" stroke="white" stroke-width="2.90008" stroke-miterlimit="10" stroke-linecap="round" stroke-linejoin="round"/>
<path id="XMLID_2936_" d="M33.9683 145.569C33.9683 146.992 32.8242 148.147 31.4129 148.147C30.0016 148.147 28.8574 146.992 28.8574 145.569C28.8574 144.145 30.0016 142.99 31.4129 142.99C32.8242 142.99 33.9683 144.145 33.9683 145.569Z" fill="white"/>
</g>
<g id="XMLID_2932_">
<path id="XMLID_3173_" d="M28.0954 135.542C28.0954 135.542 27.9661 135.515 27.7241 135.463C27.6031 135.439 27.4544 135.411 27.2789 135.377C27.191 135.362 27.0977 135.338 26.9961 135.326C26.8916 135.321 26.7808 135.315 26.6636 135.309C26.4279 135.3 26.1592 135.282 25.8661 135.279C25.5803 135.29 25.2712 135.322 24.9344 135.349C24.6001 135.384 24.255 135.476 23.8779 135.547C23.5056 135.632 23.1328 135.779 22.7265 135.908C22.3411 136.074 21.9324 136.252 21.528 136.471C21.1339 136.706 20.713 136.944 20.3286 137.253C19.5237 137.833 18.7889 138.6 18.1318 139.477C17.9763 139.702 17.8154 139.929 17.6628 140.163C17.5146 140.4 17.3921 140.654 17.2555 140.903L17.0558 141.282L16.8896 141.68C16.7846 141.947 16.6675 142.214 16.5819 142.492C16.4216 143.051 16.2422 143.614 16.1727 144.202C16.1241 144.494 16.075 144.786 16.0668 145.082L16.04 145.524L16.0274 145.746L16.0211 145.857L16.0182 145.912L16.0167 145.94L16.0162 145.954C16.0167 145.997 16.0138 145.877 16.0177 146.054L16.0614 146.818C16.0726 146.953 16.0677 147.054 16.0925 147.217L16.161 147.687C16.2339 148.333 16.4109 148.888 16.5698 149.446C16.6539 149.724 16.7729 149.991 16.874 150.26L17.0392 150.658L17.238 151.037C17.3741 151.287 17.4961 151.542 17.6434 151.779C17.7945 152.015 17.9549 152.241 18.1099 152.467C18.7651 153.346 19.4975 154.116 20.3004 154.698C20.6843 155.009 21.1052 155.247 21.4979 155.484C21.9023 155.704 22.3105 155.883 22.6954 156.051C23.1017 156.181 23.4745 156.328 23.8463 156.415C24.2234 156.487 24.568 156.579 24.9029 156.616C25.2402 156.644 25.5492 156.676 25.835 156.688C26.1237 156.685 26.3876 156.667 26.6214 156.658C26.8552 156.652 27.0622 156.635 27.243 156.592C27.4213 156.559 27.5725 156.53 27.6955 156.508C27.9365 156.456 28.0653 156.428 28.0653 156.428C28.0653 156.428 27.9394 156.388 27.7028 156.311C27.469 156.232 27.1263 156.154 26.7142 155.982C26.5076 155.901 26.2807 155.819 26.0411 155.716C25.8063 155.592 25.5522 155.478 25.2878 155.349C25.0258 155.211 24.76 155.042 24.48 154.881C24.204 154.711 23.9328 154.501 23.6465 154.307C23.1012 153.865 22.534 153.383 22.0359 152.787C21.51 152.221 21.0722 151.536 20.6702 150.826C20.2688 150.108 19.9956 149.311 19.7599 148.503L19.6263 147.882C19.5723 147.669 19.5758 147.493 19.5383 147.299L19.4936 147.013C19.4751 146.926 19.48 146.77 19.4722 146.651L19.4416 145.887C19.4459 146.055 19.443 145.928 19.444 145.963L19.4445 145.953L19.4455 145.933L19.4474 145.892L19.4513 145.812L19.4586 145.652L19.4712 145.331C19.4688 145.116 19.5038 144.905 19.5354 144.694C19.5747 144.485 19.5753 144.269 19.6297 144.063L19.7653 143.443C20 142.634 20.28 141.839 20.6809 141.121C21.0853 140.412 21.5251 139.728 22.0524 139.162C22.553 138.568 23.1216 138.087 23.6689 137.647C23.9561 137.453 24.2288 137.245 24.5048 137.075C24.7853 136.915 25.052 136.748 25.3145 136.61C25.5798 136.483 25.8341 136.368 26.0693 136.245C26.305 136.144 26.5271 136.064 26.7322 135.984C27.1356 135.813 27.5059 135.735 27.7349 135.658C27.9701 135.583 28.0954 135.542 28.0954 135.542Z" fill="white"/>
</g>
<g id="XMLID_2929_">
<path id="XMLID_3170_" d="M28.0984 114.738C28.0984 114.738 27.9691 114.71 27.727 114.658C27.606 114.635 27.4573 114.606 27.2819 114.572C27.1939 114.557 27.1006 114.534 26.999 114.522C26.8945 114.516 26.7837 114.511 26.6666 114.505C26.4309 114.495 26.1621 114.477 25.869 114.475C25.5833 114.486 25.2742 114.517 24.9374 114.544C24.603 114.58 24.2579 114.671 23.8808 114.742C23.5085 114.827 23.1357 114.974 22.7294 115.103C22.344 115.269 21.9353 115.448 21.531 115.667C21.1368 115.902 20.7159 116.139 20.3315 116.449C19.5267 117.028 18.7918 117.796 18.1347 118.672C17.9792 118.898 17.8184 119.124 17.6658 119.359C17.5175 119.595 17.395 119.849 17.2585 120.099L17.0587 120.478L16.8925 120.875C16.7875 121.143 16.6704 121.409 16.5849 121.687C16.4245 122.246 16.2451 122.81 16.1756 123.398C16.127 123.689 16.0779 123.981 16.0697 124.277L16.0429 124.72L16.0303 124.941L16.024 125.052L16.0211 125.108L16.0196 125.135L16.0191 125.149C16.0196 125.192 16.0167 125.073 16.0206 125.249L16.0643 126.013C16.0755 126.148 16.0706 126.249 16.0954 126.412L16.164 126.882C16.2369 127.528 16.4138 128.083 16.5727 128.641C16.6568 128.92 16.7759 129.186 16.8769 129.455L17.0422 129.853L17.241 130.232C17.3771 130.482 17.499 130.737 17.6463 130.974C17.7974 131.21 17.9578 131.437 18.1128 131.662C18.768 132.541 19.5004 133.312 20.3033 133.894C20.6873 134.205 21.1081 134.442 21.5008 134.679C21.9052 134.9 22.3134 135.078 22.6984 135.247C23.1047 135.376 23.4774 135.524 23.8492 135.61C24.2263 135.683 24.5709 135.774 24.9058 135.811C25.2431 135.839 25.5522 135.872 25.838 135.883C26.1266 135.88 26.3906 135.862 26.6243 135.853C26.8581 135.848 27.0651 135.83 27.2459 135.788C27.4243 135.754 27.5754 135.726 27.6984 135.703C27.9394 135.651 28.0682 135.624 28.0682 135.624C28.0682 135.624 27.9424 135.583 27.7057 135.506C27.4719 135.427 27.1293 135.349 26.7171 135.178C26.5106 135.096 26.2836 135.014 26.044 134.912C25.8093 134.787 25.5551 134.673 25.2907 134.544C25.0288 134.407 24.7629 134.238 24.483 134.077C24.2069 133.906 23.9357 133.697 23.6494 133.502C23.1041 133.061 22.537 132.578 22.0388 131.982C21.513 131.416 21.0751 130.731 20.6732 130.021C20.2717 129.304 19.9986 128.507 19.7629 127.698L19.6292 127.077C19.5752 126.864 19.5787 126.688 19.5413 126.494L19.4965 126.209C19.4781 126.121 19.4829 125.965 19.4751 125.847L19.4445 125.082C19.4489 125.25 19.446 125.123 19.4469 125.158L19.4474 125.148L19.4484 125.128L19.4504 125.088L19.4542 125.008L19.4615 124.847L19.4742 124.527C19.4717 124.311 19.5067 124.101 19.5383 123.89C19.5777 123.681 19.5782 123.464 19.6326 123.259L19.7682 122.638C20.0029 121.829 20.2829 121.034 20.6838 120.316C21.0882 119.607 21.5281 118.923 22.0554 118.358C22.556 117.763 23.1246 117.282 23.6718 116.842C23.959 116.648 24.2317 116.441 24.5078 116.27C24.7882 116.111 25.055 115.943 25.3174 115.806C25.5828 115.678 25.837 115.564 26.0722 115.44C26.3079 115.34 26.53 115.26 26.7351 115.179C27.1385 115.009 27.5089 114.931 27.7378 114.853C27.973 114.778 28.0984 114.738 28.0984 114.738Z" fill="white"/>
</g>
<g id="XMLID_2919_">
<g id="XMLID_2926_">
<path id="XMLID_3159_" d="M20.962 135.592C20.962 135.592 20.6665 135.547 20.1489 135.468C19.8928 135.416 19.591 135.338 19.2507 135.252C18.913 135.133 18.531 135.025 18.1412 134.836C17.9429 134.754 17.7417 134.659 17.5424 134.542C17.3402 134.433 17.1332 134.323 16.9344 134.182C16.7318 134.049 16.5262 133.916 16.3313 133.753C16.1306 133.602 15.9333 133.44 15.7452 133.259C15.3573 132.916 15.0006 132.513 14.6585 132.097C14.3222 131.673 14.0077 131.224 13.7273 130.752C12.5905 128.87 11.9417 126.728 11.5986 125.122C11.427 124.317 11.3254 123.642 11.2715 123.181C11.2452 122.951 11.2277 122.772 11.2209 122.659C11.2112 122.538 11.2156 122.507 11.217 122.515C10.9434 121.167 9.62828 120.296 8.2801 120.57C6.93191 120.844 6.06047 122.159 6.33458 123.507C6.33653 123.515 6.36961 123.63 6.42405 123.779C6.47945 123.938 6.5611 124.154 6.66948 124.425C6.88576 124.966 7.21281 125.713 7.65556 126.578C8.53864 128.301 9.91942 130.523 11.7978 132.327C12.2625 132.778 12.7611 133.196 13.2724 133.575C13.7914 133.947 14.3149 134.289 14.8558 134.56C15.1197 134.704 15.3884 134.827 15.6567 134.935C15.9177 135.054 16.186 135.143 16.4455 135.228C16.7002 135.322 16.9587 135.382 17.2061 135.442C17.4506 135.509 17.6916 135.553 17.924 135.584C18.3823 135.671 18.8109 135.678 19.1807 135.706C19.5584 135.702 19.8835 135.698 20.1445 135.682C20.6645 135.625 20.962 135.592 20.962 135.592Z" fill="white"/>
</g>
<g id="XMLID_2923_">
<path id="XMLID_3156_" d="M20.4011 135.475C20.4011 135.475 20.0973 135.449 19.5651 135.404C19.2998 135.381 18.9703 135.396 18.5864 135.391C18.3939 135.39 18.1956 135.419 17.9808 135.433C17.7669 135.451 17.5395 135.466 17.3072 135.514C16.8357 135.581 16.3313 135.704 15.7981 135.865C15.5386 135.96 15.264 136.049 14.9919 136.162C14.7275 136.288 14.4426 136.401 14.1734 136.551C13.6315 136.845 13.0784 137.184 12.5676 137.595C12.0408 137.992 11.5621 138.458 11.0941 138.941C10.6479 139.436 10.2119 139.952 9.83769 140.492C9.44986 141.027 9.11504 141.579 8.80303 142.123C8.50219 142.67 8.22224 143.209 7.9909 143.731C7.75178 144.252 7.55056 144.755 7.37366 145.223C7.02519 146.162 6.78804 146.968 6.63883 147.549C6.56496 147.842 6.51049 148.074 6.47598 148.245C6.44099 148.405 6.42301 148.53 6.42253 148.539C6.33164 149.912 7.3712 151.098 8.74417 151.189C10.1171 151.279 11.3035 150.24 11.3939 148.867C11.3934 148.876 11.3847 148.85 11.3788 148.728C11.3711 148.617 11.3653 148.435 11.3623 148.203C11.358 147.736 11.3769 147.049 11.4571 146.224C11.617 144.578 12.0598 142.367 13.1013 140.417C13.3705 139.942 13.6543 139.463 13.9911 139.038C14.3143 138.598 14.6871 138.21 15.0696 137.848C15.2591 137.664 15.4686 137.514 15.6644 137.347C15.8676 137.192 16.079 137.058 16.2817 136.915C16.7011 136.659 17.1166 136.432 17.522 136.263C17.7203 136.164 17.9205 136.098 18.1115 136.031C18.3025 135.967 18.4843 135.891 18.6578 135.846C19.0067 135.76 19.312 135.664 19.5759 135.618C20.1008 135.527 20.4011 135.475 20.4011 135.475Z" fill="white"/>
</g>
<g id="XMLID_2920_">
<path id="XMLID_3153_" d="M13.9097 135.575L4.96329 133.106C3.58643 132.726 2.16241 133.534 1.78235 134.911C1.40229 136.287 2.21052 137.711 3.58738 138.092C4.0554 138.221 4.53949 138.209 4.97593 138.088L13.9097 135.575Z" fill="white"/>
</g>
</g>
</g>
<g id="XMLID_2878_">
<g id="XMLID_2915_">
<path id="XMLID_2917_" d="M33.9683 167.26C33.9683 168.684 32.8242 169.838 31.4129 169.838C30.0016 169.838 28.8574 168.684 28.8574 167.26C28.8574 165.836 30.0016 164.682 31.4129 164.682C32.8242 164.682 33.9683 165.836 33.9683 167.26Z" fill="white"/>
<path id="XMLID_2916_" d="M36.7129 172.047C35.4104 173.514 33.5179 174.438 31.412 174.438C27.4836 174.438 24.2988 171.225 24.2988 167.262C24.2988 163.299 27.4836 160.086 31.412 160.086C33.4722 160.086 35.3278 160.969 36.6269 162.382" stroke="white" stroke-width="2.90008" stroke-miterlimit="10" stroke-linecap="round" stroke-linejoin="round"/>
</g>
<g id="XMLID_2912_">
<path id="XMLID_2914_" d="M36.7129 191.945C35.4104 193.413 33.5179 194.336 31.412 194.336C27.4836 194.336 24.2988 191.123 24.2988 187.16C24.2988 183.197 27.4836 179.984 31.412 179.984C33.1947 179.984 34.8243 180.646 36.0724 181.739" stroke="white" stroke-width="2.90008" stroke-miterlimit="10" stroke-linecap="round" stroke-linejoin="round"/>
<path id="XMLID_2913_" d="M33.9683 187.319C33.9683 188.742 32.8242 189.897 31.4129 189.897C30.0016 189.897 28.8574 188.742 28.8574 187.319C28.8574 185.895 30.0016 184.74 31.4129 184.74C32.8242 184.74 33.9683 185.895 33.9683 187.319Z" fill="white"/>
</g>
<g id="XMLID_2909_">
<path id="XMLID_3150_" d="M28.0954 177.296C28.0954 177.296 27.9661 177.268 27.7241 177.216C27.6031 177.193 27.4544 177.164 27.2789 177.131C27.191 177.116 27.0977 177.092 26.9961 177.08C26.8916 177.075 26.7808 177.069 26.6636 177.063C26.4279 177.054 26.1592 177.036 25.8661 177.033C25.5803 177.044 25.2712 177.075 24.9344 177.103C24.6001 177.138 24.255 177.23 23.8779 177.301C23.5056 177.386 23.1328 177.533 22.7265 177.662C22.3411 177.828 21.9324 178.006 21.528 178.225C21.1339 178.46 20.713 178.698 20.3286 179.007C19.5237 179.586 18.7889 180.354 18.1318 181.23C17.9763 181.456 17.8154 181.682 17.6628 181.917C17.5146 182.153 17.3921 182.407 17.2555 182.657L17.0558 183.036L16.8896 183.433C16.7846 183.701 16.6675 183.968 16.5819 184.246C16.4216 184.804 16.2422 185.368 16.1727 185.956C16.1241 186.247 16.075 186.54 16.0668 186.835L16.04 187.278L16.0274 187.5L16.0211 187.611L16.0182 187.666L16.0167 187.694L16.0162 187.708C16.0167 187.751 16.0138 187.631 16.0177 187.808L16.0614 188.572C16.0726 188.707 16.0677 188.808 16.0925 188.971L16.161 189.441C16.2339 190.087 16.4109 190.641 16.5698 191.2C16.6539 191.478 16.7729 191.745 16.874 192.014L17.0392 192.411L17.238 192.791C17.3741 193.041 17.4961 193.296 17.6434 193.533C17.7945 193.768 17.9549 193.995 18.1099 194.221C18.7651 195.1 19.4975 195.87 20.3004 196.452C20.6843 196.763 21.1052 197.001 21.4979 197.238C21.9023 197.458 22.3105 197.637 22.6954 197.805C23.1017 197.935 23.4745 198.082 23.8463 198.169C24.2234 198.241 24.568 198.333 24.9029 198.37C25.2402 198.398 25.5492 198.43 25.835 198.442C26.1237 198.439 26.3876 198.421 26.6214 198.412C26.8552 198.406 27.0622 198.389 27.243 198.346C27.4213 198.313 27.5725 198.284 27.6955 198.262C27.9365 198.21 28.0653 198.182 28.0653 198.182C28.0653 198.182 27.9394 198.142 27.7028 198.065C27.469 197.985 27.1263 197.908 26.7142 197.736C26.5076 197.655 26.2807 197.573 26.0411 197.47C25.8063 197.346 25.5522 197.232 25.2878 197.102C25.0258 196.965 24.76 196.796 24.48 196.635C24.204 196.465 23.9328 196.255 23.6465 196.06C23.1012 195.619 22.534 195.137 22.0359 194.541C21.51 193.974 21.0722 193.29 20.6702 192.58C20.2688 191.862 19.9956 191.065 19.7599 190.257L19.6263 189.636C19.5723 189.423 19.5758 189.247 19.5383 189.053L19.4936 188.767C19.4751 188.68 19.48 188.524 19.4722 188.405L19.4416 187.641C19.4459 187.809 19.443 187.682 19.444 187.717L19.4445 187.706L19.4455 187.686L19.4474 187.646L19.4513 187.566L19.4586 187.406L19.4712 187.085C19.4688 186.87 19.5038 186.659 19.5354 186.448C19.5747 186.239 19.5753 186.022 19.6297 185.817L19.7653 185.197C20 184.387 20.28 183.592 20.6809 182.875C21.0853 182.166 21.5251 181.482 22.0524 180.916C22.553 180.322 23.1216 179.841 23.6689 179.401C23.9561 179.207 24.2288 178.999 24.5048 178.829C24.7853 178.669 25.052 178.501 25.3145 178.364C25.5798 178.237 25.8341 178.122 26.0693 177.999C26.305 177.898 26.5271 177.818 26.7322 177.737C27.1356 177.567 27.5059 177.489 27.7349 177.412C27.9701 177.336 28.0954 177.296 28.0954 177.296Z" fill="white"/>
</g>
<g id="XMLID_2906_">
<path id="XMLID_3147_" d="M28.0984 156.491C28.0984 156.491 27.9691 156.464 27.727 156.412C27.606 156.388 27.4573 156.36 27.2819 156.326C27.1939 156.311 27.1006 156.288 26.999 156.276C26.8945 156.27 26.7837 156.264 26.6666 156.259C26.4309 156.249 26.1621 156.231 25.869 156.229C25.5833 156.24 25.2742 156.271 24.9374 156.298C24.603 156.333 24.2579 156.425 23.8808 156.496C23.5085 156.581 23.1357 156.728 22.7294 156.857C22.344 157.023 21.9353 157.202 21.531 157.421C21.1368 157.655 20.7159 157.893 20.3315 158.203C19.5267 158.782 18.7918 159.549 18.1347 160.426C17.9792 160.652 17.8184 160.878 17.6658 161.112C17.5175 161.349 17.395 161.603 17.2585 161.853L17.0587 162.232L16.8925 162.629C16.7875 162.897 16.6704 163.163 16.5849 163.441C16.4245 164 16.2451 164.564 16.1756 165.152C16.127 165.443 16.0779 165.735 16.0697 166.031L16.0429 166.474L16.0303 166.695L16.024 166.806L16.0211 166.861L16.0196 166.889L16.0191 166.903C16.0196 166.946 16.0167 166.827 16.0206 167.003L16.0643 167.767C16.0755 167.902 16.0706 168.003 16.0954 168.166L16.164 168.636C16.2369 169.282 16.4138 169.837 16.5727 170.395C16.6568 170.674 16.7759 170.94 16.8769 171.209L17.0422 171.607L17.241 171.986C17.3771 172.236 17.499 172.491 17.6463 172.728C17.7974 172.964 17.9578 173.191 18.1128 173.416C18.768 174.295 19.5004 175.066 20.3033 175.647C20.6873 175.958 21.1081 176.196 21.5008 176.433C21.9052 176.654 22.3134 176.832 22.6984 177.001C23.1047 177.13 23.4774 177.278 23.8492 177.364C24.2263 177.436 24.5709 177.528 24.9058 177.565C25.2431 177.593 25.5522 177.626 25.838 177.637C26.1266 177.634 26.3906 177.616 26.6243 177.607C26.8581 177.602 27.0651 177.584 27.2459 177.541C27.4243 177.508 27.5754 177.48 27.6984 177.457C27.9394 177.405 28.0682 177.378 28.0682 177.378C28.0682 177.378 27.9424 177.337 27.7057 177.26C27.4719 177.181 27.1293 177.103 26.7171 176.932C26.5106 176.85 26.2836 176.768 26.044 176.666C25.8093 176.541 25.5551 176.427 25.2907 176.298C25.0288 176.161 24.7629 175.992 24.483 175.831C24.2069 175.66 23.9357 175.451 23.6494 175.256C23.1041 174.814 22.537 174.332 22.0388 173.736C21.513 173.17 21.0751 172.485 20.6732 171.775C20.2717 171.058 19.9986 170.261 19.7629 169.452L19.6292 168.831C19.5752 168.618 19.5787 168.442 19.5413 168.248L19.4965 167.963C19.4781 167.875 19.4829 167.719 19.4751 167.601L19.4445 166.836C19.4489 167.004 19.446 166.877 19.4469 166.912L19.4474 166.902L19.4484 166.882L19.4504 166.841L19.4542 166.761L19.4615 166.601L19.4742 166.28C19.4717 166.065 19.5067 165.854 19.5383 165.643C19.5777 165.434 19.5782 165.218 19.6326 165.013L19.7682 164.392C20.0029 163.583 20.2829 162.788 20.6838 162.07C21.0882 161.361 21.5281 160.677 22.0554 160.112C22.556 159.517 23.1246 159.036 23.6718 158.596C23.959 158.402 24.2317 158.194 24.5078 158.024C24.7882 157.864 25.055 157.697 25.3174 157.56C25.5828 157.432 25.837 157.318 26.0722 157.194C26.3079 157.094 26.53 157.013 26.7351 156.933C27.1385 156.763 27.5089 156.684 27.7378 156.607C27.973 156.532 28.0984 156.491 28.0984 156.491Z" fill="white"/>
</g>
<g id="XMLID_2879_">
<g id="XMLID_2886_">
<path id="XMLID_3136_" d="M20.962 177.341C20.962 177.341 20.6665 177.295 20.1489 177.217C19.8928 177.165 19.591 177.086 19.2507 177C18.913 176.881 18.531 176.773 18.1412 176.584C17.9429 176.502 17.7417 176.407 17.5424 176.29C17.3402 176.181 17.1332 176.071 16.9344 175.93C16.7318 175.797 16.5262 175.664 16.3313 175.501C16.1306 175.35 15.9333 175.188 15.7452 175.007C15.3573 174.664 15.0006 174.261 14.6585 173.845C14.3222 173.421 14.0077 172.972 13.7273 172.5C12.5905 170.618 11.9417 168.476 11.5986 166.87C11.427 166.065 11.3254 165.391 11.2715 164.929C11.2452 164.699 11.2277 164.52 11.2209 164.407C11.2112 164.286 11.2156 164.255 11.217 164.263C10.9434 162.915 9.62828 162.044 8.2801 162.318C6.93191 162.592 6.06047 163.907 6.33458 165.255C6.33653 165.263 6.36961 165.378 6.42405 165.527C6.47945 165.686 6.5611 165.902 6.66948 166.174C6.88576 166.714 7.21281 167.461 7.65556 168.326C8.53864 170.049 9.91942 172.271 11.7978 174.075C12.2625 174.527 12.7611 174.944 13.2724 175.323C13.7914 175.695 14.3149 176.038 14.8558 176.308C15.1197 176.452 15.3884 176.575 15.6567 176.683C15.9177 176.802 16.186 176.891 16.4455 176.976C16.7002 177.07 16.9587 177.131 17.2061 177.189C17.4506 177.256 17.6916 177.3 17.924 177.331C18.3823 177.419 18.8109 177.426 19.1807 177.454C19.5584 177.45 19.8835 177.446 20.1445 177.43C20.6645 177.373 20.962 177.341 20.962 177.341Z" fill="white"/>
</g>
<g id="XMLID_2883_">
<path id="XMLID_3133_" d="M20.4011 177.223C20.4011 177.223 20.0973 177.197 19.5651 177.152C19.2998 177.129 18.9703 177.144 18.5864 177.139C18.3939 177.139 18.1956 177.167 17.9808 177.181C17.7669 177.199 17.5395 177.214 17.3072 177.262C16.8357 177.329 16.3313 177.452 15.7981 177.613C15.5386 177.708 15.264 177.797 14.9919 177.91C14.7275 178.036 14.4426 178.149 14.1734 178.299C13.6315 178.593 13.0784 178.932 12.5676 179.343C12.0408 179.74 11.5621 180.206 11.0941 180.689C10.6479 181.184 10.2119 181.7 9.83769 182.24C9.44986 182.775 9.11504 183.327 8.80303 183.871C8.50219 184.418 8.22224 184.957 7.9909 185.479C7.75178 186 7.55056 186.503 7.37366 186.971C7.02519 187.91 6.78804 188.716 6.63883 189.297C6.56496 189.59 6.51049 189.822 6.47598 189.993C6.44099 190.153 6.42301 190.278 6.42253 190.287C6.33164 191.66 7.3712 192.846 8.74417 192.937C10.1171 193.027 11.3035 191.988 11.3939 190.615C11.3934 190.624 11.3847 190.598 11.3788 190.476C11.3711 190.365 11.3653 190.183 11.3623 189.951C11.358 189.484 11.3769 188.797 11.4571 187.972C11.617 186.327 12.0598 184.115 13.1013 182.165C13.3705 181.69 13.6543 181.211 13.9911 180.786C14.3143 180.346 14.6871 179.958 15.0696 179.596C15.2591 179.413 15.4686 179.262 15.6644 179.095C15.8676 178.94 16.079 178.806 16.2817 178.663C16.7011 178.407 17.1166 178.181 17.522 178.011C17.7203 177.912 17.9205 177.846 18.1115 177.779C18.3025 177.715 18.4843 177.639 18.6578 177.594C19.0067 177.508 19.312 177.412 19.5759 177.366C20.1008 177.275 20.4011 177.223 20.4011 177.223Z" fill="white"/>
</g>
<g id="XMLID_2880_">
<path id="XMLID_3130_" d="M13.9097 177.321L4.96329 174.852C3.58643 174.472 2.16241 175.28 1.78235 176.657C1.40229 178.034 2.21052 179.458 3.58738 179.838C4.0554 179.967 4.53949 179.955 4.97593 179.834L13.9097 177.321Z" fill="white"/>
</g>
</g>
</g>
<path id="XMLID_2877_" d="M-0.798828 -11.5039L-0.798819 197.89" stroke="white" stroke-width="2.23138" stroke-miterlimit="10" stroke-linecap="round" stroke-linejoin="round"/>
<path id="XMLID_2874_" d="M37.1331 -11.5039L37.1045 198.181" stroke="white" stroke-width="2.23138" stroke-miterlimit="10" stroke-linecap="round" stroke-linejoin="round"/>
<path id="XMLID_2873_" d="M44.8242 -11.5039L44.8529 197.89" stroke="white" stroke-width="2.23138" stroke-miterlimit="10" stroke-linecap="round" stroke-linejoin="round"/>
<path id="XMLID_2872_" d="M40.8479 -11.5039L40.5879 195.269" stroke="white" stroke-width="2.78923" stroke-miterlimit="10" stroke-linecap="round" stroke-linejoin="round"/>
</g>
<g id="XMLID_2285_">
<g id="XMLID_2863_">
<path id="XMLID_2866_" d="M55.7474 -3.41098C50.5637 -3.52373 52.3332 4.83416 45.3799 4.38265" stroke="white" stroke-width="1.5802" stroke-miterlimit="10" stroke-linecap="round" stroke-linejoin="round"/>
</g>
<g id="XMLID_2859_">
<path id="XMLID_2862_" d="M55.7474 12.53C50.5637 12.6428 52.3332 4.28491 45.3799 4.73641" stroke="white" stroke-width="1.5802" stroke-miterlimit="10" stroke-linecap="round" stroke-linejoin="round"/>
<path id="XMLID_2861_" d="M55.7474 12.8546C50.5637 12.7419 52.3332 21.0998 45.3799 20.6483" stroke="white" stroke-width="1.5802" stroke-miterlimit="10" stroke-linecap="round" stroke-linejoin="round"/>
<path id="XMLID_2860_" d="M45.7891 9.20312C47.6641 9.20312 49.1838 10.6937 49.1838 12.5318C49.1838 14.3704 47.6641 15.8605 45.7891 15.8605" fill="white"/>
</g>
<g id="XMLID_2855_">
<path id="XMLID_2858_" d="M55.7474 28.7957C50.5637 28.9084 52.3332 20.5505 45.3799 21.002" stroke="white" stroke-width="1.5802" stroke-miterlimit="10" stroke-linecap="round" stroke-linejoin="round"/>
<path id="XMLID_2857_" d="M55.7474 29.1203C50.5637 29.0075 52.3332 37.3654 45.3799 36.9139" stroke="white" stroke-width="1.5802" stroke-miterlimit="10" stroke-linecap="round" stroke-linejoin="round"/>
<path id="XMLID_2856_" d="M45.7891 25.4688C47.6641 25.4687 49.1838 26.9593 49.1838 28.7974C49.1838 30.6355 47.6641 32.1261 45.7891 32.1261" fill="white"/>
</g>
<g id="XMLID_2851_">
<path id="XMLID_2854_" d="M55.7474 45.0613C50.5637 45.174 52.3332 36.8162 45.3799 37.2677" stroke="white" stroke-width="1.5802" stroke-miterlimit="10" stroke-linecap="round" stroke-linejoin="round"/>
<path id="XMLID_2853_" d="M55.7474 45.3859C50.5637 45.2731 52.3332 53.631 45.3799 53.1795" stroke="white" stroke-width="1.5802" stroke-miterlimit="10" stroke-linecap="round" stroke-linejoin="round"/>
<path id="XMLID_2852_" d="M45.7891 41.7344C47.6641 41.7344 49.1838 43.225 49.1838 45.063C49.1838 46.9016 47.6641 48.3917 45.7891 48.3917" fill="white"/>
</g>
<g id="XMLID_2847_">
<path id="XMLID_2850_" d="M55.7474 61.3269C50.5637 61.4397 52.3332 53.0818 45.3799 53.5333" stroke="white" stroke-width="1.5802" stroke-miterlimit="10" stroke-linecap="round" stroke-linejoin="round"/>
<path id="XMLID_2849_" d="M55.7474 61.6515C50.5637 61.5388 52.3332 69.8966 45.3799 69.4451" stroke="white" stroke-width="1.5802" stroke-miterlimit="10" stroke-linecap="round" stroke-linejoin="round"/>
<path id="XMLID_2848_" d="M45.7891 58C47.6641 58 49.1838 59.4906 49.1838 61.3287C49.1838 63.1668 47.6641 64.6573 45.7891 64.6573" fill="white"/>
</g>
<g id="XMLID_2843_">
<path id="XMLID_2846_" d="M55.7474 77.5945C50.5637 77.7072 52.3332 69.3494 45.3799 69.8009" stroke="white" stroke-width="1.5802" stroke-miterlimit="10" stroke-linecap="round" stroke-linejoin="round"/>
<path id="XMLID_2845_" d="M55.7474 77.9191C50.5637 77.8063 52.3332 86.1642 45.3799 85.7127" stroke="white" stroke-width="1.5802" stroke-miterlimit="10" stroke-linecap="round" stroke-linejoin="round"/>
<path id="XMLID_2844_" d="M45.7891 74.2676C47.6641 74.2676 49.1838 75.7582 49.1838 77.5962C49.1838 79.4348 47.6641 80.9249 45.7891 80.9249" fill="white"/>
</g>
<g id="XMLID_2839_">
<path id="XMLID_2842_" d="M55.7474 93.8621C50.5637 93.9748 52.3332 85.6169 45.3799 86.0684" stroke="white" stroke-width="1.5802" stroke-miterlimit="10" stroke-linecap="round" stroke-linejoin="round"/>
<path id="XMLID_2841_" d="M55.7474 94.1867C50.5637 94.0739 52.3332 102.432 45.3799 101.98" stroke="white" stroke-width="1.5802" stroke-miterlimit="10" stroke-linecap="round" stroke-linejoin="round"/>
<path id="XMLID_2840_" d="M45.7891 90.5352C47.6641 90.5352 49.1838 92.0257 49.1838 93.8638C49.1838 95.7024 47.6641 97.1925 45.7891 97.1925" fill="white"/>
</g>
<g id="XMLID_2835_">
<path id="XMLID_2838_" d="M55.7474 109.532C50.5637 109.645 52.3332 101.287 45.3799 101.738" stroke="white" stroke-width="1.5802" stroke-miterlimit="10" stroke-linecap="round" stroke-linejoin="round"/>
<path id="XMLID_2837_" d="M55.7474 109.857C50.5637 109.744 52.3332 118.102 45.3799 117.65" stroke="white" stroke-width="1.5802" stroke-miterlimit="10" stroke-linecap="round" stroke-linejoin="round"/>
<path id="XMLID_2836_" d="M45.7891 106.205C47.6641 106.205 49.1838 107.696 49.1838 109.534C49.1838 111.372 47.6641 112.862 45.7891 112.862" fill="white"/>
</g>
<g id="XMLID_2831_">
<path id="XMLID_2834_" d="M55.7474 125.8C50.5637 125.912 52.3332 117.554 45.3799 118.006" stroke="white" stroke-width="1.5802" stroke-miterlimit="10" stroke-linecap="round" stroke-linejoin="round"/>
<path id="XMLID_2833_" d="M55.7474 126.124C50.5637 126.011 52.3332 134.369 45.3799 133.918" stroke="white" stroke-width="1.5802" stroke-miterlimit="10" stroke-linecap="round" stroke-linejoin="round"/>
<path id="XMLID_2832_" d="M45.7891 122.473C47.6641 122.473 49.1838 123.963 49.1838 125.801C49.1838 127.64 47.6641 129.13 45.7891 129.13" fill="white"/>
</g>
<g id="XMLID_2827_">
<path id="XMLID_2830_" d="M55.7474 142.065C50.5637 142.178 52.3332 133.82 45.3799 134.272" stroke="white" stroke-width="1.5802" stroke-miterlimit="10" stroke-linecap="round" stroke-linejoin="round"/>
<path id="XMLID_2829_" d="M55.7474 142.39C50.5637 142.277 52.3332 150.635 45.3799 150.183" stroke="white" stroke-width="1.5802" stroke-miterlimit="10" stroke-linecap="round" stroke-linejoin="round"/>
<path id="XMLID_2828_" d="M45.7891 138.738C47.6641 138.738 49.1838 140.229 49.1838 142.067C49.1838 143.906 47.6641 145.396 45.7891 145.396" fill="white"/>
</g>
<g id="XMLID_2823_">
<path id="XMLID_2826_" d="M55.7474 158.331C50.5637 158.444 52.3332 150.086 45.3799 150.537" stroke="white" stroke-width="1.5802" stroke-miterlimit="10" stroke-linecap="round" stroke-linejoin="round"/>
<path id="XMLID_2825_" d="M55.7474 158.655C50.5637 158.543 52.3332 166.901 45.3799 166.449" stroke="white" stroke-width="1.5802" stroke-miterlimit="10" stroke-linecap="round" stroke-linejoin="round"/>
<path id="XMLID_2824_" d="M45.7891 155.004C47.6641 155.004 49.1838 156.494 49.1838 158.333C49.1838 160.171 47.6641 161.661 45.7891 161.661" fill="white"/>
</g>
<g id="XMLID_2819_">
<path id="XMLID_2822_" d="M55.7474 174.6C50.5637 174.713 52.3332 166.355 45.3799 166.807" stroke="white" stroke-width="1.5802" stroke-miterlimit="10" stroke-linecap="round" stroke-linejoin="round"/>
<path id="XMLID_2821_" d="M55.7474 174.925C50.5637 174.812 52.3332 183.17 45.3799 182.719" stroke="white" stroke-width="1.5802" stroke-miterlimit="10" stroke-linecap="round" stroke-linejoin="round"/>
<path id="XMLID_2820_" d="M45.7891 171.273C47.6641 171.273 49.1838 172.764 49.1838 174.602C49.1838 176.441 47.6641 177.931 45.7891 177.931" fill="white"/>
</g>
<g id="XMLID_2286_">
<path id="XMLID_2793_" d="M55.7474 190.866C50.5637 190.979 52.3332 182.621 45.3799 183.072" stroke="white" stroke-width="1.5802" stroke-miterlimit="10" stroke-linecap="round" stroke-linejoin="round"/>
<path id="XMLID_2791_" d="M45.7891 187.539C47.6641 187.539 49.1838 189.03 49.1838 190.868C49.1838 192.706 47.6641 194.196 45.7891 194.196" fill="white"/>
</g>
</g>
</g>
</svg>
