<svg width="21" height="20" viewBox="0 0 21 20" fill="none" xmlns="http://www.w3.org/2000/svg">
<g id="destination (1) 1" clip-path="url(#clip0_9192_20210)">
<g id="Group">
<path id="Vector" d="M4.16473 3.42773C3.77774 3.42773 3.46289 3.74258 3.46289 4.12961C3.46289 4.51661 3.77774 4.83146 4.16473 4.83146C4.55176 4.83146 4.86661 4.51661 4.86661 4.12961C4.86661 3.74258 4.55176 3.42773 4.16473 3.42773Z" fill="white"/>
<path id="Vector_2" d="M14.9044 18.706C15.2274 17.9268 14.8576 17.0334 14.0784 16.7104C13.2993 16.3874 12.4058 16.7573 12.0828 17.5364C11.7599 18.3156 12.1297 19.2091 12.9088 19.532C13.688 19.855 14.5814 19.4852 14.9044 18.706Z" fill="white"/>
<path id="Vector_3" d="M10.7539 18.1171C10.7539 17.9597 10.768 17.8056 10.7937 17.6553H2.87957C2.23672 17.6553 1.71371 17.1323 1.71371 16.4894C1.71371 15.8466 2.23672 15.3235 2.87957 15.3235H8.33533C9.5758 15.3235 10.585 14.3143 10.585 13.0739C10.585 11.8334 9.57583 10.8242 8.33533 10.8242H5.93283L5.21156 12.0301H8.33533C8.9109 12.0301 9.37914 12.4983 9.37914 13.0739C9.37914 13.6495 8.91087 14.1177 8.33533 14.1177H2.87957C1.57179 14.1177 0.507812 15.1817 0.507812 16.4894C0.507812 17.7972 1.57179 18.8612 2.87957 18.8612H10.8577C10.7906 18.6245 10.7539 18.3751 10.7539 18.1171Z" fill="white"/>
<path id="Vector_4" d="M20.4992 9.77124C20.4896 9.53369 20.3414 9.32392 20.1206 9.23562L13.7117 6.67201C13.5259 6.59776 13.3154 6.62039 13.1497 6.73257C12.984 6.84475 12.8848 7.03177 12.8848 7.23182V15.4523C13.0788 15.4084 13.2803 15.3845 13.4873 15.3845C13.6947 15.3845 13.8964 15.4085 14.0906 15.4524V13.3504L20.1647 10.3355C20.3777 10.2298 20.5087 10.0088 20.4992 9.77124Z" fill="white"/>
<path id="Vector_5" d="M7.89253 4.05466C7.89253 2.01274 6.23721 0.357422 4.19529 0.357422C2.15337 0.357422 0.498047 2.01274 0.498047 4.05466V4.07C0.498047 4.80805 0.695524 5.53264 1.06999 6.16865L3.88352 10.9471C4.01088 11.1634 4.32335 11.1645 4.45219 10.949L7.30599 6.17782C7.68982 5.53615 7.89253 4.80239 7.89253 4.05466ZM4.16622 6.03681C3.1143 6.03681 2.25848 5.181 2.25848 4.12907C2.25848 3.07715 3.1143 2.22134 4.16622 2.22134C5.21814 2.22134 6.07395 3.07715 6.07395 4.12907C6.07395 5.18104 5.21814 6.03681 4.16622 6.03681Z" fill="white"/>
</g>
</g>
<defs>
<clipPath id="clip0_9192_20210">
<rect width="20" height="20" fill="white" transform="translate(0.5)"/>
</clipPath>
</defs>
</svg>
