<svg width="78" height="78" viewBox="0 0 78 78" fill="none" xmlns="http://www.w3.org/2000/svg">
<g id="information (1) 1">
<g id="g4095">
<g id="g4097">
<g id="Clip path group">
<mask id="mask0_9094_18065" style="mask-type:luminance" maskUnits="userSpaceOnUse" x="0" y="0" width="78" height="78">
<g id="clipPath4103">
<path id="path4101" d="M0 7.62939e-06H78V78H0V7.62939e-06Z" fill="white"/>
</g>
</mask>
<g mask="url(#mask0_9094_18065)">
<g id="g4099">
<g id="g4105">
<path id="path4107" d="M61.7596 29.6964V73.0718C61.7596 75.1618 60.0639 76.8574 57.9737 76.8574H17.0268C14.9353 76.8574 13.2412 75.1618 13.2412 73.0718V72.8462" stroke="#3FA9F5" stroke-width="3" stroke-miterlimit="10" stroke-linecap="round" stroke-linejoin="round"/>
</g>
<g id="g4109">
<path id="path4111" d="M42.1557 7.61726H13.0154C10.9245 7.61726 9.22949 9.31224 9.22949 11.4032V22.6123" stroke="#3FA9F5" stroke-width="3" stroke-miterlimit="10" stroke-linecap="round" stroke-linejoin="round"/>
</g>
<g id="g4113">
<path id="path4115" d="M9.22949 27.182V69.0601C9.22949 71.1509 10.9245 72.8457 13.0154 72.8457H53.9623C56.0531 72.8457 57.7479 71.1509 57.7479 69.0601V33.1382" stroke="#3FA9F5" stroke-width="3" stroke-miterlimit="10" stroke-linecap="round" stroke-linejoin="round"/>
</g>
<g id="g4117">
<path id="path4119" d="M19.0541 11.6316V16.1056C19.0541 17.6821 20.332 18.96 21.9083 18.96C23.4846 18.96 24.7624 17.6821 24.7624 16.1056V5.61161C24.7624 3.14364 22.7619 1.14291 20.2939 1.14291C17.8258 1.14291 15.8252 3.14364 15.8252 5.61161V7.61721" stroke="#FFBB0B" stroke-width="3" stroke-miterlimit="10" stroke-linecap="round" stroke-linejoin="round"/>
</g>
<g id="g4121">
<path id="path4123" d="M23.4668 24.8975H43.5114" stroke="#FFBB0B" stroke-width="3" stroke-miterlimit="10" stroke-linecap="round" stroke-linejoin="round"/>
</g>
<g id="g4125">
<path id="path4127" d="M17.623 35.6973H49.3552" stroke="#FFBB0B" stroke-width="3" stroke-miterlimit="10" stroke-linecap="round" stroke-linejoin="round"/>
</g>
<g id="g4129">
<path id="path4131" d="M17.623 44.0283H49.3552" stroke="#FFBB0B" stroke-width="3" stroke-miterlimit="10" stroke-linecap="round" stroke-linejoin="round"/>
</g>
<g id="g4133">
<path id="path4135" d="M17.623 52.3604H49.3552" stroke="#FFBB0B" stroke-width="3" stroke-miterlimit="10" stroke-linecap="round" stroke-linejoin="round"/>
</g>
<g id="g4137">
<path id="path4139" d="M57.748 12.8877V18.9453" stroke="#FFBB0B" stroke-width="3" stroke-miterlimit="10" stroke-linecap="round" stroke-linejoin="round"/>
</g>
<g id="g4141">
<path id="path4143" d="M57.748 7.9338V8.10352" stroke="#FFBB0B" stroke-width="3" stroke-miterlimit="10" stroke-linecap="round" stroke-linejoin="round"/>
</g>
<g id="g4145">
<path id="path4147" d="M66.4852 3.53756H49.0117C47.7497 3.53756 46.7266 4.5607 46.7266 5.82271V21.0571C46.7266 22.3191 47.7497 23.3422 49.0117 23.3422H53.5729C53.8402 23.3422 54.0881 23.4824 54.2257 23.7115L56.8344 28.0513C57.2488 28.7407 58.2482 28.7407 58.6624 28.0513L61.271 23.7115C61.4088 23.4824 61.6565 23.3422 61.9239 23.3422H66.4852C67.7472 23.3422 68.7704 22.3191 68.7704 21.0571V5.82271C68.7704 4.5607 67.7472 3.53756 66.4852 3.53756Z" stroke="#3FA9F5" stroke-width="3" stroke-miterlimit="10" stroke-linecap="round" stroke-linejoin="round"/>
</g>
</g>
</g>
</g>
</g>
</g>
</g>
</svg>
