<svg width="20" height="20" viewBox="0 0 20 20" fill="none" xmlns="http://www.w3.org/2000/svg">
<g id="whatsapp (6) 3" clip-path="url(#clip0_9192_20219)">
<g id="Group 1171276249">
<g id="Group">
<path id="Vector" d="M0.832031 19.1654L2.12699 14.4579C1.32821 13.0802 0.90805 11.5173 0.908637 9.91616C0.910692 4.90719 5.00544 0.832031 10.0371 0.832031C12.4788 0.833054 14.7706 1.77913 16.4941 3.49626C18.2175 5.2134 19.1662 7.4959 19.1654 9.92346C19.1632 14.9323 15.0678 19.008 10.0371 19.008C10.0368 19.008 10.0372 19.008 10.0371 19.008H10.0331C8.50539 19.0074 7.00439 18.626 5.67112 17.9021L0.832031 19.1654ZM5.89522 16.2576L6.17244 16.4211C7.33708 17.1092 8.6724 17.4731 10.0341 17.4738H10.0371C14.2187 17.4738 17.6222 14.0863 17.624 9.92288C17.6247 7.90524 16.8364 6.00798 15.4039 4.58083C13.9713 3.15368 12.0665 2.36728 10.0399 2.36641C5.85486 2.36641 2.45147 5.75349 2.44986 9.91674C2.44927 11.3435 2.8502 12.7328 3.6098 13.9351L3.79031 14.2208L3.02367 17.007L5.89522 16.2576Z" fill="white" fill-opacity="0.5"/>
<path id="Vector_2" fill-rule="evenodd" clip-rule="evenodd" d="M7.66165 5.94464C7.48404 5.54975 7.29697 5.54181 7.1279 5.53495C6.98965 5.52899 6.83142 5.5293 6.67349 5.5293C6.51541 5.5293 6.25845 5.58881 6.04117 5.82608C5.82373 6.06336 5.21094 6.63709 5.21094 7.80393C5.21094 8.97092 6.06085 10.0984 6.17941 10.2568C6.29797 10.415 7.82004 12.886 10.2305 13.8366C12.2338 14.6267 12.6414 14.4696 13.0762 14.4301C13.5111 14.3905 14.4793 13.8563 14.6769 13.3026C14.8746 12.7488 14.8746 12.2743 14.8153 12.175C14.7559 12.0762 14.5978 12.0169 14.3607 11.8983C14.1236 11.7798 12.9577 11.2059 12.7402 11.1268C12.5228 11.0476 12.3647 11.0083 12.2066 11.2457C12.0484 11.4828 11.5943 12.0169 11.4559 12.175C11.3175 12.3335 11.1791 12.3533 10.942 12.2346C10.7049 12.1158 9.94101 11.8655 9.03494 11.0576C8.32999 10.429 7.85391 9.65268 7.71552 9.41526C7.57727 9.17813 7.71323 9.06095 7.81973 8.9314C8.01154 8.69809 8.33334 8.27863 8.41238 8.12055C8.49142 7.96216 8.4519 7.82376 8.3927 7.70505C8.33334 7.58649 7.87238 6.4137 7.66165 5.94464Z" fill="white" fill-opacity="0.5"/>
</g>
</g>
</g>
<defs>
<clipPath id="clip0_9192_20219">
<rect width="20" height="20" fill="white"/>
</clipPath>
</defs>
</svg>
